<?xml version="1.0" encoding="UTF-8"?>
<!-- Generated by Pixelmator Pro 2.4.3 -->
<svg width="2702" height="2702" viewBox="0 0 2702 2702" xmlns="http://www.w3.org/2000/svg" xmlns:xlink="http://www.w3.org/1999/xlink">
    <path id="Path" fill="#6a005f" stroke="none" d="M 355.743469 131.218506 C 482.134247 204.82251 648.672668 256.865723 848.667419 259.096191 C 1053.123047 261.32666 1226.352783 221.178955 1352.000122 142.370605 C 1478.390747 221.178955 1653.85083 262.070068 1856.07605 259.096191 C 2051.610107 256.865723 2224.096191 205.565918 2349.000244 132.705322 C 2351.230469 426.378174 2344.539307 706.668213 2344.539307 999.59729 C 2344.539307 1290.296021 2360.152344 1591.403442 2285.804688 1813.702393 C 2249.374512 1922.993286 2195.10083 2013.697266 2133.392334 2099.940186 C 2073.170898 2184.696533 1998.079834 2259.044189 1917.041016 2320.752441 C 1833.02832 2384.691406 1736.376587 2430.043457 1637.494385 2479.855957 C 1552.738281 2522.234131 1467.982056 2566.099121 1386.199829 2610.707764 C 1375.047729 2617.398926 1360.921753 2621.116211 1352.74353 2632.268311 C 1308.13501 2602.529297 1260.552612 2578.738281 1212.226807 2553.459961 C 1163.900879 2528.925537 1115.574951 2503.647217 1067.249146 2478.369141 C 1017.436218 2453.09082 967.623413 2430.786621 920.041016 2406.251953 C 872.458618 2380.973877 830.080566 2351.978516 787.702454 2320.008789 C 621.907532 2193.618164 494.773315 2030.053711 418.938843 1812.215576 C 380.278137 1699.950806 369.126038 1571.32959 362.434753 1431.556274 C 355.743469 1294.013428 359.460846 1147.548828 359.460846 1004.801636 C 359.460846 712.615967 355 427.121582 355 134.192383 C 355 132.705322 355 131.218506 355.743469 131.218506 Z M 1301.443726 235.304932 C 1127.470581 312.626465 853.128296 334.930664 630.829224 289.578613 C 560.942566 275.452637 497.747223 256.865723 442.730072 231.587646 C 435.295319 227.870361 427.117065 221.922363 418.195374 222.666016 C 415.964966 493.290771 423.399719 773.580933 423.399719 1033.797119 C 423.399719 1169.109619 416.708435 1307.395996 421.91275 1436.76062 C 427.860565 1565.381714 441.986572 1686.568237 477.67337 1791.398193 C 512.616699 1893.997803 558.712158 1982.471313 616.703247 2063.51001 C 702.946289 2183.953125 807.032837 2284.322266 939.371338 2355.695801 C 983.979858 2379.486816 1030.818848 2400.304199 1078.401245 2422.608643 C 1170.592163 2465.72998 1263.526489 2511.082031 1355.717407 2556.434082 C 1447.164795 2511.082031 1540.842651 2467.217041 1632.290161 2422.608643 C 1679.129028 2399.560791 1726.711426 2380.230469 1770.576416 2356.439209 C 1858.306519 2309.600342 1933.397461 2247.148438 1999.566772 2176.518311 C 2099.192383 2071.688232 2180.231201 1941.580078 2229.300537 1790.654785 C 2298.443604 1578.020874 2283.574219 1308.882935 2283.574219 1036.771118 C 2283.574219 762.428833 2284.317627 492.547363 2286.548096 222.666016 C 2278.370117 222.666016 2270.19165 227.870361 2262.013428 231.587646 C 2204.765869 256.865723 2143.057373 277.683105 2074.657715 291.065674 C 1913.32373 322.291504 1714.815796 317.830811 1563.146851 284.374268 C 1485.082031 267.274414 1415.195435 241.252686 1354.230469 210.026855 C 1340.10437 219.692139 1321.517578 227.126709 1301.443726 235.304932 Z"/>
    <path id="path1" fill="#6a005f" stroke="none" d="M 1374.304321 320.804688 C 1459.803955 329.726318 1524.486206 375.078369 1563.146851 438.273682 C 1568.351196 446.451904 1576.529419 459.834473 1575.786011 466.525635 C 1574.299072 473.217041 1569.094727 479.164795 1563.146851 478.421387 C 1554.968628 477.677734 1551.994751 466.525635 1546.046997 456.117188 C 1513.334106 398.869385 1460.547363 359.465332 1384.712891 346.082764 C 1388.430298 363.182617 1395.86499 380.282715 1402.556274 398.125977 C 1409.247559 415.969482 1415.938843 434.556396 1421.886597 451.65625 C 1424.860474 454.630127 1421.143188 459.091064 1421.886597 463.551758 C 1435.269165 462.80835 1450.88208 462.80835 1448.651855 478.421387 C 1445.677856 497.751709 1386.943359 482.88208 1365.382446 488.086426 C 1363.1521 502.956055 1364.639038 523.029785 1364.639038 540.129639 C 1376.534546 547.564453 1433.038818 534.181885 1444.190918 542.360107 C 1447.908325 544.590576 1448.651855 551.281982 1448.651855 554.999268 C 1445.677856 576.560059 1388.430298 558.716553 1365.382446 564.664307 C 1361.665039 582.507813 1370.586914 607.04248 1352.743408 608.529297 C 1335.643433 609.272949 1340.8479 586.225098 1340.10437 565.407959 C 1318.543579 557.973145 1260.552612 576.560059 1256.091675 556.486328 C 1250.143921 527.490723 1318.543579 548.307861 1339.36084 540.129639 C 1341.591309 526.003662 1341.591309 503.699463 1339.36084 488.830078 C 1320.030518 481.395264 1260.552612 498.495117 1256.091675 479.164795 C 1253.117798 464.29541 1267.987305 462.064941 1282.113281 463.551758 C 1285.087158 460.577881 1280.626343 456.860596 1282.113281 453.143066 C 1296.23938 418.943359 1307.391479 381.769531 1321.517456 347.569824 C 1230.070068 360.20874 1172.078979 415.226074 1143.826904 493.290771 C 1153.492188 492.547363 1169.105103 487.343018 1188.435425 483.625732 C 1209.252808 479.908203 1251.630859 470.243164 1239.735229 499.982178 C 1222.635254 505.186523 1203.304932 505.186523 1185.461548 508.903809 C 1168.361694 512.621094 1152.005127 518.568848 1137.87915 523.773193 C 1134.905273 528.977539 1134.161865 536.412354 1133.418335 543.847168 C 1149.031372 541.616699 1165.387695 534.925537 1185.461548 531.208008 C 1200.331055 528.977539 1244.196045 517.825439 1239.735229 541.616699 C 1237.504761 552.025391 1224.865723 550.53833 1215.200562 551.281982 C 1186.948486 552.768799 1151.261719 562.434082 1132.674805 572.099121 C 1131.931396 575.81665 1132.674805 584.738281 1134.161865 589.198975 C 1151.261719 584.738281 1163.900757 581.020996 1186.205078 577.303467 C 1200.331055 575.81665 1233.043945 566.151367 1236.761353 581.764404 C 1241.222168 604.068604 1202.561523 597.377197 1183.231201 601.094727 C 1163.157349 604.812012 1150.518188 610.759766 1138.622681 614.477295 C 1143.083496 624.885742 1143.083496 638.268311 1133.418335 640.498779 C 1111.857544 644.959717 1109.627075 595.146973 1108.883667 574.32959 C 1108.140137 543.10376 1112.601074 515.594971 1118.548828 494.03418 C 1146.800903 397.382568 1221.891846 335.674072 1331.926147 319.317627 C 1340.10437 307.422119 1340.10437 284.374268 1354.973877 285.861328 C 1367.612915 288.091797 1366.125977 310.395996 1374.304321 320.804688 Z M 1366.869507 370.617432 C 1363.1521 361.695801 1359.434814 341.621826 1349.769531 343.108887 C 1331.926147 380.282715 1320.030518 423.404053 1303.674072 463.551758 C 1312.595825 464.29541 1329.695801 462.80835 1338.617432 463.551758 C 1331.926147 427.86499 1372.817261 425.634521 1364.639038 463.551758 L 1401.069336 463.551758 C 1390.660767 436.043213 1377.278076 401.099854 1366.869507 370.617432 Z M 849.410889 413.739014 C 854.615173 418.199951 847.92395 424.147705 850.154358 428.608398 C 865.767273 425.634521 885.097717 437.530273 886.584656 445.708496 C 888.815063 456.117188 876.919434 468.012695 879.893372 482.138672 C 905.914978 498.495117 912.606262 534.925537 942.345276 548.307861 C 954.984314 572.842773 963.906067 609.272949 957.958252 642.729248 C 953.497375 668.007446 928.219238 670.981323 933.423584 704.437744 C 935.653992 718.563721 944.575684 747.559326 954.984314 752.76355 C 961.675598 755.737549 970.597351 752.020142 977.288574 757.224487 C 982.49292 763.915771 980.262451 778.041748 975.801636 783.989624 C 954.984314 787.706909 947.549561 809.2677 922.271484 801.089478 C 912.606262 797.37207 896.249817 786.963379 891.045471 778.785278 C 888.071594 773.580933 888.071594 766.146118 885.841187 760.941772 C 880.636841 749.046265 870.97168 741.61145 865.767273 732.689819 C 850.154358 737.150635 802.57196 729.715942 810.750183 754.25061 C 814.467529 765.40271 851.641296 759.454834 839.745667 788.450439 C 835.284851 798.115601 803.31543 812.241577 790.676331 815.215454 C 786.215515 815.958984 778.780762 816.702393 775.806824 815.958984 C 772.089478 815.215454 768.37207 811.498169 763.167786 810.754639 C 752.759094 808.52417 739.376587 812.985107 728.224426 810.754639 C 721.533142 809.2677 702.946289 796.628662 696.255005 790.680786 C 691.794189 786.963379 682.872437 775.811279 681.385559 771.350464 C 676.181213 759.454834 679.89856 749.789673 667.259521 744.585327 C 662.055176 742.35498 654.620422 743.098511 648.672607 741.61145 C 637.520508 738.637573 624.881409 729.715942 615.959717 736.407227 C 604.064148 749.046265 622.651001 754.994019 628.598816 766.146118 C 634.54657 776.55481 630.829224 784.733032 632.316162 800.346069 C 628.598816 805.550293 620.420593 814.472046 610.755432 816.702393 C 598.116333 818.932861 580.272888 809.2677 562.429504 804.806885 C 550.533936 801.832886 533.434021 801.832886 530.460083 789.937378 C 528.973145 782.502563 536.407898 778.041748 537.894836 771.350464 C 540.125244 763.172241 535.664429 756.480957 540.868774 749.046265 C 532.690491 736.407227 536.407898 717.076782 535.664429 694.772583 C 534.920959 670.237915 534.920959 653.881348 540.868774 636.038086 C 543.099182 629.34668 543.099182 622.655518 545.32959 618.937988 C 548.303467 611.503174 570.607727 593.659912 579.52948 589.198975 C 599.603271 578.046875 633.059631 569.125244 668.74646 574.32959 C 676.181213 575.072998 682.872437 581.764404 690.30719 582.507813 C 703.689758 584.738281 722.276672 581.020996 736.402649 582.507813 C 740.863525 580.277344 744.580933 577.303467 746.81134 572.842773 C 748.298279 549.794922 734.91571 540.873291 728.967896 524.516846 C 731.941833 501.468994 725.250549 474.703857 733.428772 452.399658 C 735.65918 446.451904 746.06781 428.608398 752.015686 421.917236 C 757.219971 415.969482 768.37207 407.047607 775.063354 405.560791 C 786.958984 403.330322 807.776306 410.021729 819.671875 414.482422 C 825.61969 410.021729 840.489197 410.021729 849.410889 413.739014 Z M 786.958984 462.064941 C 797.367615 464.29541 801.82843 451.65625 806.289307 444.964844 C 803.31543 439.760742 804.802368 430.095459 797.367615 430.095459 C 798.111084 444.964844 790.676331 451.65625 786.958984 462.064941 Z M 747.55481 456.860596 C 749.041748 458.347412 752.015686 458.347412 754.989563 458.347412 C 757.96344 451.65625 758.706909 443.478027 762.424316 438.273682 C 752.759094 435.299805 746.81134 449.425781 747.55481 456.860596 Z M 814.467529 460.577881 C 804.802368 468.012695 786.215515 475.44751 792.163269 491.803955 C 792.906799 491.803955 794.393738 491.803955 794.393738 492.547363 C 806.289307 488.830078 810.006714 476.190918 818.928406 468.012695 C 826.363159 461.321533 840.489197 457.604004 839.002197 442.734619 C 826.363159 438.273682 821.902283 453.886719 814.467529 460.577881 Z M 814.467529 510.390869 C 814.467529 511.134277 816.697937 512.621094 816.697937 513.364746 C 820.415344 515.594971 823.389221 511.134277 827.850098 510.390869 C 836.77179 509.647217 842.719604 514.851563 847.92395 514.851563 C 853.128235 509.647217 848.667419 500.725586 842.719604 499.982178 C 836.02832 511.134277 810.750183 490.316895 814.467529 510.390869 Z M 882.867249 499.982178 C 877.662964 499.238525 875.432495 505.186523 875.432495 509.647217 C 876.175964 517.082031 889.558533 525.260254 896.993286 524.516846 C 894.019409 520.055908 888.071594 500.725586 882.867249 499.982178 Z M 789.932861 515.594971 C 781.011169 519.3125 776.550354 526.747314 774.319885 536.412354 C 781.754639 539.38623 782.498108 528.977539 789.189392 528.234131 C 796.624146 531.95166 796.624146 543.10376 804.058899 546.077637 C 806.289307 549.051514 815.21106 544.590576 815.954468 549.051514 C 815.954468 554.999268 807.032776 554.999268 801.085022 557.973145 C 794.393738 560.947021 783.241577 570.612305 773.576416 576.560059 C 756.476501 586.225098 734.172241 598.864258 759.450378 610.016357 C 762.424316 607.785889 759.450378 602.581543 760.937317 599.607666 C 763.167786 594.40332 783.985046 579.533936 786.215515 579.533936 C 790.676331 578.790527 795.137207 581.764404 799.598022 581.020996 C 810.750183 579.533936 812.980591 569.125244 822.645813 564.664307 C 828.593567 566.151367 835.284851 566.894775 843.463074 566.894775 C 853.128235 570.612305 847.92395 588.455566 859.07605 590.686035 C 864.280396 583.251221 860.562988 573.586182 866.510803 566.894775 C 865.767273 560.203613 859.07605 557.973145 859.819519 549.794922 C 861.306458 545.333984 866.510803 544.590576 870.22821 543.10376 C 880.636841 550.53833 878.406433 569.868652 888.071594 577.303467 C 896.993286 572.099121 899.223694 552.768799 893.27594 543.10376 C 888.815063 535.668945 873.945557 532.695068 870.97168 526.747314 C 846.436951 526.747314 827.106628 532.695068 807.776306 538.642822 C 800.341553 534.181885 797.367615 523.029785 789.932861 515.594971 Z M 912.606262 583.994629 C 920.784485 579.533936 916.323669 563.17749 907.401978 562.434082 C 903.68457 569.125244 903.68457 583.994629 912.606262 583.994629 Z M 812.237122 593.659912 C 814.467529 599.607666 823.389221 598.12085 824.876221 604.068604 C 821.902283 615.964111 831.567444 621.911865 833.797913 632.320557 C 827.106628 641.242188 817.441467 633.063965 814.467529 627.116211 C 810.006714 627.859863 807.032776 630.090088 807.032776 635.294434 C 831.567444 636.781494 818.184937 665.033569 802.57196 670.237915 C 798.111084 672.468384 791.4198 670.237915 786.215515 671.724854 C 780.2677 673.211792 775.063354 679.903076 768.37207 682.133423 C 757.96344 685.85083 749.041748 682.876953 743.093933 687.337891 C 740.120056 699.976929 741.606995 715.589844 750.528687 714.846436 C 759.450378 714.102905 759.450378 696.259521 768.37207 693.285645 C 781.754639 695.515991 780.2677 685.107422 787.702454 682.876953 C 791.4198 681.390015 795.880676 684.363892 801.085022 682.876953 C 815.954468 678.416138 819.671875 659.829224 828.593567 648.677002 C 852.384766 651.650879 858.33252 630.83374 859.07605 613.733643 C 845.693481 615.964111 829.337036 618.19458 827.106628 606.299072 C 825.61969 598.12085 833.797913 594.40332 836.02832 586.225098 C 830.823975 575.072998 813.72406 583.994629 812.237122 593.659912 Z M 614.472778 596.633789 C 610.011902 596.633789 610.755432 590.686035 604.807617 592.172852 C 605.551086 600.351074 598.116333 600.351074 595.885925 604.812012 C 597.372864 610.759766 604.807617 610.759766 606.294556 615.964111 C 623.39447 615.220703 627.855347 603.324951 641.981323 601.094727 C 639.750916 581.020996 624.881409 590.686035 614.472778 596.633789 Z M 666.516052 589.198975 C 662.798645 595.146973 667.259521 605.55542 672.463806 608.529297 C 682.872437 604.068604 679.15509 587.712158 666.516052 589.198975 Z M 721.533142 633.063965 C 725.994019 627.859863 723.763611 613.733643 716.328857 613.733643 C 713.354919 618.19458 711.867981 635.294434 721.533142 633.063965 Z M 549.790466 644.216309 C 556.48175 647.933594 572.094727 649.42041 577.299011 642.729248 C 573.581665 635.294434 573.581665 629.34668 574.325134 622.655518 C 563.916504 627.116211 553.507813 632.320557 549.790466 644.216309 Z M 726.737488 648.677002 C 735.65918 650.164063 752.759094 652.394531 754.989563 643.472656 C 750.528687 633.063965 725.250549 633.807617 726.737488 648.677002 Z M 606.294556 669.494385 C 601.833679 670.237915 603.320679 663.546631 598.859802 664.290039 C 592.911987 664.290039 592.911987 670.981323 586.964233 671.724854 C 584.733765 670.981323 583.246826 669.494385 579.52948 669.494385 C 577.299011 671.724854 573.581665 672.468384 574.325134 677.672607 C 579.52948 675.442139 581.759888 676.185669 586.220703 679.159546 C 587.707642 676.929199 587.707642 673.211792 591.425049 673.211792 C 590.68158 688.824707 581.016418 705.181152 562.429504 706.668213 C 560.942566 714.846436 554.994751 719.307251 549.790466 723.768066 C 545.32959 743.098511 551.277405 761.685303 569.864258 761.685303 C 571.351196 757.968018 570.607727 752.76355 571.351196 747.559326 C 566.146912 742.35498 560.942566 737.150635 563.172974 724.511597 C 566.146912 722.281128 569.864258 720.050659 575.812073 720.050659 C 583.990295 712.615967 590.68158 703.694214 595.885925 692.542114 C 592.168518 680.646484 604.807617 672.468384 610.011902 682.133423 C 610.011902 685.107422 606.294556 691.055176 612.24231 690.311646 C 616.703186 688.824707 612.24231 685.85083 612.24231 682.876953 C 617.446655 676.185669 629.342285 675.442139 632.316162 666.520508 C 624.137939 653.881348 615.216248 665.7771 606.294556 669.494385 Z M 554.994751 688.824707 C 560.942566 683.620483 563.172974 672.468384 559.455627 664.290039 C 549.046997 664.290039 546.816528 684.363892 554.994751 688.824707 Z M 691.794189 691.798706 C 692.537659 695.515991 700.715881 694.029053 703.689758 693.285645 C 703.689758 691.798706 704.433228 691.055176 705.176697 690.311646 C 703.689758 688.081299 700.715881 685.85083 697.741943 685.107422 C 698.485474 689.568237 691.794189 687.337891 691.794189 691.798706 Z M 782.498108 704.437744 C 778.037292 706.668213 774.319885 707.411621 772.089478 711.872437 C 770.602539 719.307251 775.063354 731.946289 768.37207 734.176758 C 757.96344 726.741943 750.528687 732.689819 743.837402 739.381104 C 738.633057 738.637573 737.146179 733.433228 728.967896 734.920166 C 728.224426 738.637573 725.250549 751.276611 731.198303 752.020142 C 737.146179 750.533203 728.224426 740.868042 735.65918 740.868042 C 737.889648 746.072266 740.863525 749.046265 743.837402 752.76355 C 743.093933 760.941772 740.863525 776.55481 745.324341 782.502563 C 757.96344 778.785278 746.06781 750.533203 761.680847 749.046265 C 766.885132 752.020142 765.398193 761.685303 766.141663 769.120117 C 770.602539 771.350464 776.550354 778.041748 783.985046 778.785278 C 792.906799 779.528687 808.519775 776.55481 811.493652 770.607056 C 806.289307 766.146118 796.624146 766.146118 792.163269 760.941772 C 790.676331 759.454834 790.676331 755.737549 790.676331 752.76355 C 780.2677 745.328857 775.063354 728.229004 780.2677 711.872437 C 781.754639 706.668213 792.163269 699.233398 783.241577 694.029053 C 781.754639 697.00293 782.498108 701.463867 782.498108 704.437744 Z M 583.990295 766.146118 L 583.990295 769.120117 C 593.655457 768.376587 595.885925 779.528687 603.320679 776.55481 C 601.09021 769.863525 592.168518 764.65918 583.990295 766.146118 Z M 2109.601074 735.663696 C 2099.192383 728.972412 2085.809814 738.637573 2075.401123 740.868042 C 2062.761963 743.841919 2050.866455 743.841919 2045.662109 754.994019 C 2043.431763 760.198364 2044.175171 766.146118 2042.688232 770.607056 C 2033.766602 791.424316 2013.692871 796.628662 1998.079834 810.01123 C 1987.671143 812.241577 1975.031982 807.780762 1961.649536 810.01123 C 1952.727783 811.498169 1949.010376 817.445923 1934.884399 814.472046 C 1914.810669 810.754639 1888.04541 798.115601 1883.584717 786.963379 C 1875.406372 765.40271 1898.454224 762.428833 1912.5802 756.480957 C 1916.297485 734.920166 1900.68457 738.637573 1882.841187 736.407227 C 1873.919434 734.920166 1864.254272 731.946289 1859.049927 732.689819 C 1854.589111 734.176758 1841.206543 750.533203 1836.745728 760.941772 C 1834.515259 766.146118 1834.515259 772.837402 1832.28479 778.041748 C 1825.593628 790.680786 1801.80249 804.063354 1787.676392 803.319946 C 1769.833008 802.576416 1766.859009 786.963379 1746.785156 784.733032 C 1742.324463 775.811279 1740.837402 763.172241 1746.785156 757.968018 C 1751.989502 753.50708 1765.37207 755.737549 1771.319946 751.276611 C 1778.754639 746.072266 1795.111084 703.694214 1789.163208 682.876953 C 1785.445923 669.494385 1768.346069 658.342285 1765.37207 647.933594 C 1764.628662 644.216309 1763.885132 635.294434 1763.885132 629.34668 C 1763.885132 603.324951 1764.628662 568.381836 1780.241577 549.794922 C 1786.932983 541.616699 1798.085083 537.899414 1806.263184 529.721191 C 1820.389282 514.108154 1822.619629 489.573486 1843.437012 484.369141 C 1842.693604 469.499512 1838.976196 459.091064 1836.002197 446.451904 C 1844.180542 436.786621 1852.358643 427.121582 1872.432617 429.352051 C 1876.149902 424.891113 1867.97168 418.943359 1873.176025 414.482422 C 1881.354248 411.508545 1896.967163 410.765137 1902.914917 415.969482 C 1914.067139 411.508545 1926.706177 409.278076 1939.345337 407.047607 C 1961.649536 403.330322 1973.545044 425.634521 1981.723389 440.50415 C 1987.671143 450.912842 1992.875488 456.860596 1994.362427 473.217041 C 1995.105957 480.651855 1994.362427 490.316895 1994.362427 499.982178 C 1994.362427 508.1604 1995.105957 518.568848 1994.362427 524.516846 C 1990.64502 545.333984 1960.162476 569.125244 1986.927612 583.251221 C 2001.053589 581.764404 2017.410156 586.225098 2032.279663 583.251221 C 2040.457886 581.764404 2047.892578 575.81665 2052.353516 575.072998 C 2068.709961 572.099121 2088.040283 573.586182 2100.679199 575.072998 C 2131.905273 579.533936 2156.439941 599.607666 2176.513672 617.451172 C 2177.257324 630.090088 2186.178955 640.498779 2188.409424 654.624878 C 2191.383301 676.929199 2190.639648 711.872437 2187.665771 733.433228 C 2186.178955 744.585327 2181.718018 754.994019 2185.435303 770.607056 C 2186.922363 778.041748 2193.61377 781.759155 2192.870117 787.706909 C 2192.126709 801.832886 2174.283203 801.832886 2158.67041 805.550293 C 2131.905273 812.985107 2103.653076 826.367676 2091.757568 799.602539 C 2092.500977 783.989624 2090.270508 775.811279 2096.218506 765.40271 C 2102.909668 753.50708 2118.522705 750.533203 2109.601074 735.663696 Z M 1937.858276 462.064941 C 1938.601807 455.373535 1930.423462 453.886719 1928.193237 447.195313 C 1925.962769 441.247559 1930.423462 433.812744 1924.47583 428.608398 C 1911.83667 438.273682 1922.98877 464.29541 1937.858276 462.064941 Z M 1969.084351 458.347412 C 1972.801636 459.091064 1975.775513 457.604004 1977.262451 456.117188 C 1975.775513 446.451904 1972.058105 439.760742 1963.879883 436.786621 C 1961.649536 443.478027 1968.34082 450.912842 1969.084351 458.347412 Z M 1885.071655 443.478027 C 1885.815063 461.321533 1901.427979 462.80835 1911.093262 472.473633 C 1918.527954 480.651855 1920.758423 491.060303 1930.423462 492.547363 C 1941.575684 479.164795 1920.758423 464.29541 1909.606323 459.834473 C 1903.658447 452.399658 1897.710693 439.760742 1885.071655 443.478027 Z M 1849.384766 507.416748 C 1849.384766 505.186523 1845.667358 499.238525 1841.206543 499.982178 C 1836.745728 500.725586 1827.824097 522.286377 1827.824097 524.516846 C 1836.002197 525.260254 1850.128296 514.108154 1849.384766 507.416748 Z M 1893.993286 504.442871 C 1888.78894 505.186523 1883.584717 499.238525 1879.123779 499.982178 C 1874.662842 501.468994 1868.71521 513.364746 1876.893311 514.851563 C 1881.354248 511.877686 1899.197632 508.1604 1905.888916 514.851563 C 1912.5802 510.390869 1909.606323 503.699463 1903.658447 499.982178 C 1899.197632 499.982178 1899.197632 503.699463 1893.993286 504.442871 Z M 1936.371338 515.594971 C 1925.962769 520.055908 1925.219238 534.925537 1914.810669 540.129639 C 1896.967163 532.695068 1876.893311 528.234131 1852.358643 528.234131 C 1849.384766 535.668945 1831.541382 538.642822 1829.311035 548.307861 C 1826.337036 558.716553 1829.311035 572.099121 1834.515259 578.790527 C 1847.154297 573.586182 1848.641235 528.234131 1865.741211 553.512207 C 1864.254272 559.460205 1859.049927 563.17749 1858.306519 569.868652 C 1865.741211 574.32959 1861.280396 584.738281 1864.997803 592.172852 C 1878.380249 592.172852 1872.432617 573.586182 1881.354248 569.868652 C 1888.04541 568.381836 1896.967163 568.381836 1903.658447 566.151367 C 1914.067139 573.586182 1921.501831 586.968506 1939.345337 580.277344 C 1949.010376 589.942627 1966.853882 593.659912 1965.366943 610.759766 C 1973.545044 610.759766 1978.74939 601.838135 1978.005981 597.377197 C 1977.262451 586.968506 1955.701782 578.790527 1945.292969 572.842773 C 1939.345337 569.125244 1934.140869 563.920898 1928.193237 560.947021 C 1920.758423 557.229736 1911.093262 557.973145 1910.349731 550.53833 C 1911.093262 546.821045 1917.784424 549.051514 1920.758423 549.051514 C 1928.936646 545.333984 1928.936646 533.438477 1937.114868 529.721191 C 1942.319214 530.4646 1945.292969 540.129639 1950.497437 537.899414 C 1949.753906 529.721191 1943.062744 520.055908 1936.371338 515.594971 Z M 1807.006714 578.790527 C 1814.441528 592.172852 1822.619629 572.842773 1817.415283 563.17749 C 1809.237183 563.17749 1808.493652 571.355713 1807.006714 578.790527 Z M 1887.302002 586.225098 C 1890.275879 593.659912 1896.223755 598.12085 1896.223755 607.04248 C 1891.762817 618.937988 1873.919434 613.733643 1863.510742 614.477295 C 1865.741211 629.34668 1868.71521 652.394531 1893.993286 647.933594 C 1902.171509 660.572632 1908.862793 674.69873 1922.245361 682.876953 C 1940.832275 675.442139 1939.345337 694.029053 1954.958252 693.285645 C 1964.623413 696.259521 1963.879883 714.102905 1972.801636 714.846436 C 1983.210327 715.589844 1983.953857 696.259521 1980.23645 685.85083 C 1971.314697 682.133423 1963.136475 685.107422 1953.471313 681.390015 C 1949.010376 679.903076 1945.292969 673.211792 1940.832275 671.724854 C 1933.397461 669.494385 1925.962769 672.468384 1919.271362 669.494385 C 1910.349731 665.7771 1902.914917 652.394531 1902.914917 640.498779 C 1905.145386 635.294434 1914.810669 638.268311 1916.297485 631.577148 C 1915.554077 627.859863 1913.32373 626.372803 1909.606323 625.629395 C 1905.888916 631.577148 1895.480225 640.498779 1889.532349 630.090088 C 1893.993286 621.168457 1900.68457 615.964111 1899.197632 601.094727 C 1902.171509 597.377197 1909.606323 598.864258 1911.093262 592.916504 C 1911.093262 583.251221 1893.249756 576.560059 1887.302002 586.225098 Z M 2080.605469 600.351074 C 2094.731445 603.324951 2100.679199 615.220703 2117.035645 615.964111 C 2118.522705 610.759766 2127.444336 610.759766 2128.187744 604.812012 C 2125.214111 600.351074 2117.779297 600.351074 2118.522705 592.172852 C 2111.831543 590.686035 2114.061768 597.377197 2108.114014 596.633789 C 2098.448975 589.198975 2085.066406 583.251221 2080.605469 600.351074 Z M 2052.353516 608.529297 C 2056.814209 604.812012 2062.018555 597.377197 2059.044678 589.198975 C 2044.918701 587.712158 2040.457886 605.55542 2052.353516 608.529297 Z M 2005.514526 613.733643 C 2001.053589 616.707764 1997.336304 627.859863 2002.540649 633.063965 C 2012.949341 635.294434 2013.692871 615.220703 2005.514526 613.733643 Z M 2146.03125 644.216309 C 2152.722656 648.677002 2165.361572 647.190186 2174.283203 644.959717 C 2171.309326 632.320557 2160.900635 627.116211 2149.748535 622.655518 C 2149.748535 629.34668 2149.005127 636.038086 2146.03125 644.216309 Z M 1969.827759 645.703125 C 1973.545044 651.650879 1989.158081 650.907471 1996.592896 648.677002 C 1999.566772 633.063965 1970.571289 632.320557 1969.827759 645.703125 Z M 2091.757568 667.263916 C 2096.961914 673.9552 2106.627197 676.185669 2111.831543 682.133423 C 2111.087891 684.363892 2109.601074 687.337891 2111.831543 689.568237 C 2118.522705 688.824707 2114.805176 684.363892 2114.061768 679.903076 C 2130.418213 668.007446 2128.187744 696.259521 2134.87915 706.668213 C 2139.340088 713.359497 2145.287842 714.102905 2148.261719 719.307251 C 2151.979004 720.050659 2156.439941 720.794189 2160.157227 721.53772 C 2169.079102 737.894043 2145.287842 745.328857 2154.953125 760.941772 C 2178.744141 763.915771 2182.46167 721.53772 2164.618164 714.846436 C 2164.618164 711.129028 2163.131104 709.64209 2162.387695 707.411621 C 2144.544189 705.181152 2131.905273 686.59436 2133.39209 672.468384 C 2137.109619 680.646484 2143.800781 673.9552 2150.492188 677.672607 C 2149.748535 673.211792 2146.774658 670.981323 2143.057373 669.494385 C 2140.083496 669.494385 2138.596436 671.724854 2135.622559 671.724854 C 2132.648682 669.494385 2131.161621 665.7771 2125.95752 664.290039 C 2121.496582 664.290039 2122.23999 670.237915 2116.292236 669.494385 C 2109.601074 663.546631 2097.705322 654.624878 2091.757568 667.263916 Z M 2170.565918 688.081299 C 2176.513672 682.133423 2174.283203 665.033569 2165.361572 664.290039 C 2160.157227 670.981323 2161.644287 685.107422 2170.565918 688.081299 Z M 2020.384033 691.798706 C 2022.614502 694.029053 2027.075317 694.029053 2032.279663 694.029053 C 2032.279663 692.542114 2032.279663 691.798706 2033.766602 690.311646 C 2029.305664 688.081299 2020.384033 681.390015 2020.384033 691.798706 Z M 1944.549561 714.102905 C 1942.319214 724.511597 1944.549561 732.689819 1943.062744 743.841919 C 1937.858276 749.046265 1931.910522 752.76355 1932.653931 761.685303 C 1927.449707 766.889648 1915.554077 766.146118 1912.5802 773.580933 C 1925.962769 781.015625 1949.753906 781.759155 1958.675537 769.863525 C 1960.162476 762.428833 1957.188721 750.533203 1965.366943 749.789673 C 1978.74939 752.76355 1966.853882 780.272217 1980.23645 783.246094 C 1983.953857 776.55481 1982.466797 759.454834 1980.23645 753.50708 C 1985.440796 750.533203 1985.440796 743.098511 1992.131958 741.61145 C 1992.875488 745.328857 1989.901489 752.76355 1994.362427 752.76355 C 1998.823364 750.533203 1998.079834 739.381104 1995.849365 735.663696 C 1986.927612 733.433228 1986.927612 740.124512 1979.49292 740.124512 C 1975.775513 729.715942 1964.623413 728.972412 1954.958252 734.920166 C 1951.240845 728.229004 1953.471313 721.53772 1952.727783 711.872437 C 1944.549561 708.89856 1942.319214 700.720337 1939.345337 695.515991 C 1934.884399 703.694214 1941.575684 709.64209 1944.549561 714.102905 Z M 2121.496582 778.041748 C 2128.931396 775.811279 2134.87915 771.350464 2140.083496 767.633057 C 2133.39209 763.172241 2121.496582 769.120117 2121.496582 778.041748 Z"/>
    <path id="path2" fill="#6a005f" stroke="none" d="M 1561.660034 495.52124 C 1568.351196 494.777832 1569.838135 487.343018 1578.759888 488.086426 C 1592.142334 488.830078 1595.116333 525.260254 1596.603271 543.10376 C 1598.83374 575.072998 1595.859741 659.829224 1564.633789 631.577148 C 1563.890381 624.885742 1565.377319 619.681396 1566.864258 615.220703 C 1551.994751 606.299072 1521.512207 599.607666 1495.490601 597.377197 C 1482.108154 596.633789 1463.52124 598.12085 1468.725586 580.277344 C 1473.186401 566.151367 1506.6427 575.072998 1520.025391 576.560059 C 1541.586182 580.277344 1553.481689 583.994629 1569.838135 588.455566 C 1573.555542 585.481689 1571.325195 577.303467 1572.812134 572.099121 C 1560.173096 563.17749 1518.538452 552.025391 1491.029907 549.794922 C 1477.647339 549.051514 1464.264648 550.53833 1464.264648 537.155762 C 1464.264648 531.208008 1468.725586 528.977539 1473.186401 525.260254 C 1511.847168 526.003662 1542.32959 533.438477 1571.325195 543.10376 C 1579.503296 516.338623 1543.816528 512.621094 1524.486206 508.1604 C 1504.412476 503.699463 1484.338501 502.956055 1469.468994 500.725586 C 1460.547363 496.264648 1461.290894 478.421387 1474.673462 478.421387 C 1499.208008 479.164795 1546.046997 488.086426 1561.660034 495.52124 Z M 1399.582397 798.859131 C 1375.791138 767.633057 1451.62561 771.350464 1461.290894 754.994019 C 1450.88208 749.789673 1436.012573 746.815796 1421.886597 745.328857 C 1407.76062 743.098511 1392.891113 741.61145 1379.508545 741.61145 C 1380.251953 763.172241 1389.917236 799.602539 1366.869507 805.550293 C 1350.512939 810.01123 1300.700195 804.806885 1298.469727 793.654663 C 1293.265381 767.633057 1336.386963 784.733032 1355.717407 781.759155 C 1360.921753 770.607056 1356.460815 751.276611 1352.743408 740.868042 C 1314.826294 737.894043 1277.652466 745.328857 1246.426514 752.020142 C 1256.091675 766.889648 1283.60022 763.172241 1285.830688 777.29834 C 1291.035034 809.2677 1236.017822 776.55481 1228.58313 772.093994 C 1198.844116 754.994019 1176.539917 734.920166 1154.979126 705.924683 C 1146.800903 694.772583 1128.957397 673.211792 1130.444458 661.316162 C 1131.931396 650.164063 1156.466064 643.472656 1172.82251 639.011963 C 1268.730835 612.990234 1379.508545 603.324951 1485.825562 624.885742 C 1499.951538 627.859863 1517.051514 633.063965 1533.407959 639.011963 C 1547.533936 643.472656 1573.555542 649.42041 1575.042603 659.085815 C 1577.272827 672.468384 1552.738281 703.694214 1546.790527 711.129028 C 1522.255737 743.841919 1497.721069 763.915771 1459.803955 781.015625 C 1442.703979 789.937378 1422.630127 798.859131 1399.582397 798.859131 Z M 1159.439941 669.494385 C 1173.565918 697.00293 1194.383301 717.820313 1217.43103 736.407227 C 1233.043945 731.202759 1249.400391 725.998535 1267.987305 723.768066 C 1260.552612 717.076782 1251.630859 713.359497 1241.965698 705.924683 C 1234.530884 700.720337 1221.148315 692.542114 1221.891846 681.390015 C 1222.635254 669.494385 1247.913452 663.546631 1264.269897 659.829224 C 1320.030518 647.190186 1386.199829 648.677002 1438.986572 660.572632 C 1455.343018 664.290039 1483.595093 668.750977 1483.595093 682.133423 C 1483.595093 689.568237 1470.956055 700.720337 1464.264648 705.181152 C 1455.343018 712.615967 1444.934448 713.359497 1438.986572 723.024536 C 1459.060425 724.511597 1473.929932 730.459351 1490.286377 735.663696 C 1514.077515 718.563721 1532.664429 696.259521 1545.303589 668.750977 C 1444.190918 627.116211 1262.782959 630.090088 1159.439941 669.494385 Z M 1259.809082 688.081299 C 1301.443726 724.511597 1402.556274 724.511597 1444.190918 688.081299 C 1395.12146 671.724854 1309.621826 671.724854 1259.809082 688.081299 Z M 643.468262 1424.86499 C 643.468262 1422.634521 642.724792 1419.660767 641.237854 1415.199829 C 639.750916 1410.739014 639.007446 1407.765137 637.520508 1407.021729 C 636.033508 1404.047729 632.316162 1402.560791 627.111816 1401.817261 C 621.907532 1401.073853 615.959717 1400.330322 607.781494 1400.330322 L 495.516754 1400.330322 L 495.516754 1390.665161 L 621.907532 1296.987305 L 541.612244 1296.987305 C 532.690491 1296.987305 525.999268 1297.730713 521.538391 1298.474243 C 516.334106 1299.217773 513.360168 1300.704712 511.129761 1303.678589 C 509.642792 1305.165527 508.155853 1308.882935 506.668884 1314.08728 C 505.181946 1319.291626 504.438477 1322.265503 504.438477 1324.49585 L 497.003723 1324.49585 L 497.003723 1261.300537 L 504.438477 1261.300537 C 505.181946 1263.531006 505.181946 1266.504883 506.668884 1270.965698 C 508.155853 1275.426514 508.899323 1278.400513 509.642792 1279.887451 C 511.87323 1282.861206 514.847107 1284.348267 518.564514 1285.091675 C 523.02533 1285.835205 529.716614 1286.578613 540.125244 1286.578613 L 615.959717 1286.578613 C 618.933594 1286.578613 622.651001 1285.835205 625.624878 1284.348267 C 629.342285 1282.861206 631.572693 1282.117798 633.803101 1279.887451 C 636.033508 1276.913574 638.263977 1273.196167 639.750916 1269.47876 C 641.237854 1265.017944 641.981323 1261.300537 642.724792 1258.32666 L 650.159546 1258.32666 L 650.159546 1302.935181 L 533.434021 1388.434814 L 607.038025 1388.434814 C 615.959717 1388.434814 623.39447 1388.434814 627.855347 1386.947754 C 633.059631 1386.204346 636.033508 1383.973877 637.520508 1381.743408 C 639.007446 1379.513062 640.494385 1376.539185 641.237854 1372.078247 C 641.981323 1367.617432 643.468262 1363.900146 643.468262 1361.669678 L 650.903015 1361.669678 L 650.903015 1424.86499 L 643.468262 1424.86499 Z M 509.642792 1601.068604 L 502.951508 1537.129761 L 510.386261 1536.38623 C 511.129761 1541.590576 512.616699 1546.794922 514.103638 1550.512207 C 515.590576 1554.229614 517.077515 1555.716675 518.564514 1555.716675 C 519.307983 1555.716675 520.051453 1555.716675 520.794922 1554.973145 C 521.538391 1554.973145 522.28186 1554.229614 523.02533 1554.229614 L 556.48175 1537.873169 L 551.277405 1483.599487 C 546.073059 1482.112549 541.612244 1480.62561 537.894836 1479.88208 C 534.17749 1479.138672 530.460083 1477.651855 527.486206 1477.651855 C 523.768799 1476.908325 521.538391 1476.908325 519.307983 1476.164795 L 514.847107 1476.164795 C 511.87323 1476.908325 510.386261 1478.395264 508.899323 1483.599487 C 508.155853 1488.060425 507.412384 1493.264648 507.412384 1499.212524 L 499.977631 1499.956055 L 494.029816 1441.964966 L 501.464569 1441.221436 C 502.208038 1442.708374 502.208038 1445.682373 503.695007 1448.65625 C 504.438477 1450.886597 505.925415 1453.117065 507.412384 1455.347534 C 509.642792 1458.321411 511.87323 1459.80835 514.103638 1462.038818 C 516.334106 1463.525757 519.307983 1464.269165 523.02533 1465.756104 C 543.099182 1471.703979 565.403442 1477.651855 590.68158 1485.086548 C 615.959717 1491.777832 637.520508 1497.725586 657.594299 1503.673462 L 658.337769 1511.851563 L 530.460083 1576.533936 C 528.229675 1577.277466 525.255798 1578.764282 523.768799 1580.994751 C 522.28186 1582.481689 520.794922 1584.712158 519.307983 1587.686035 C 518.564514 1589.173096 517.821045 1591.403442 517.821045 1594.377319 C 517.077515 1597.351196 517.077515 1599.581665 517.077515 1601.068604 L 509.642792 1601.068604 Z M 566.146912 1533.412476 L 623.39447 1504.41687 L 561.686035 1487.316895 L 566.146912 1533.412476 Z M 693.281128 1762.402588 C 692.537659 1760.915771 691.794189 1757.198364 689.563721 1753.480957 C 687.333313 1749.763672 685.846375 1746.789795 684.359436 1745.302734 C 682.128967 1743.072266 678.411621 1742.328857 673.207275 1742.328857 C 668.00293 1742.328857 661.311707 1743.815674 653.876953 1745.302734 L 543.099182 1769.837402 L 540.868774 1760.915771 L 644.211792 1641.959717 L 566.146912 1659.05957 C 557.22522 1660.546509 551.277405 1662.776978 546.816528 1665.007446 C 542.355713 1667.237915 539.381775 1669.468262 537.894836 1672.442139 C 536.407898 1674.672607 535.664429 1678.390137 535.664429 1683.59436 C 534.920959 1689.542236 534.920959 1692.516113 535.664429 1694.00293 L 528.229675 1696.233398 L 514.103638 1634.524902 L 521.538391 1633.037964 C 522.28186 1635.268433 523.768799 1638.24231 525.999268 1641.959717 C 528.229675 1646.420532 529.716614 1648.651001 531.203552 1649.394409 C 533.434021 1651.624878 537.151367 1652.368408 541.612244 1652.368408 C 546.073059 1652.368408 552.764343 1651.624878 563.172974 1649.394409 L 637.520508 1633.037964 C 641.237854 1632.294434 644.211792 1630.807495 647.185669 1629.320679 C 650.159546 1627.09021 652.390015 1624.859741 653.133484 1623.372803 C 655.363892 1620.398926 656.107361 1615.93811 656.85083 1611.477295 C 657.594299 1606.272827 657.594299 1602.555542 656.85083 1600.325195 L 664.285583 1598.838135 L 673.950806 1641.959717 L 578.04248 1751.994019 L 649.416077 1735.637695 C 658.337769 1733.407227 665.029053 1731.920166 669.489929 1729.689697 C 673.950806 1727.459351 676.924683 1725.228882 677.668152 1722.998535 C 678.411621 1720.768066 679.15509 1717.050781 679.15509 1712.589844 L 679.15509 1702.181152 L 686.589844 1699.950806 L 699.972412 1761.65918 L 693.281128 1762.402588 Z M 741.606995 1853.106689 C 740.120056 1851.619629 738.633057 1849.389282 737.146179 1847.158936 L 731.941833 1841.95459 C 729.711426 1840.467529 727.480957 1838.980591 725.994019 1839.724121 C 723.763611 1839.724121 721.533142 1840.467529 719.302734 1841.95459 L 639.750916 1887.306396 C 635.2901 1889.536865 630.829224 1891.767334 624.881409 1892.510742 C 619.677063 1893.254272 613.729309 1893.254272 608.524963 1892.510742 C 602.577148 1891.023926 596.629395 1888.793457 590.68158 1885.075928 C 585.477234 1881.358643 581.016418 1875.410889 577.299011 1869.463135 C 571.351196 1859.797852 569.120789 1849.389282 571.351196 1839.724121 C 573.581665 1830.058838 579.52948 1822.624146 589.194641 1816.67627 C 592.911987 1814.445801 597.372864 1812.958984 602.577148 1812.958984 C 607.038025 1813.702393 610.755432 1815.932861 612.98584 1820.393799 C 614.472778 1824.111084 615.216248 1827.828491 614.472778 1830.80249 C 613.729309 1834.519775 611.49884 1837.493652 608.524963 1838.980591 C 606.294556 1840.467529 604.064148 1841.21106 601.833679 1841.21106 C 599.603271 1841.95459 597.372864 1841.95459 595.142395 1841.95459 L 581.016418 1841.95459 C 579.52948 1844.184814 578.78595 1847.158936 578.78595 1851.619629 C 578.78595 1855.337036 580.272888 1859.054443 582.503357 1864.258789 C 585.477234 1868.719604 589.194641 1871.693604 592.168518 1873.923828 C 595.885925 1875.410889 600.346741 1876.154297 604.064148 1875.410889 C 607.781494 1874.66748 612.98584 1873.923828 618.190125 1871.693604 C 623.39447 1869.463135 628.598816 1867.232666 634.54657 1863.515259 L 705.176697 1822.624146 C 707.407166 1821.137207 708.894104 1819.650391 709.637573 1818.906738 C 711.124512 1817.419922 711.124512 1815.189453 711.124512 1812.215576 C 711.124512 1809.985107 710.381042 1807.01123 708.894104 1803.293701 C 707.407166 1800.319824 706.663635 1798.089478 705.176697 1795.859009 L 711.867981 1792.141602 L 746.06781 1850.876221 L 741.606995 1853.106689 Z M 687.333313 2030.053711 L 644.955261 1975.036621 L 650.903015 1970.575684 C 652.390015 1972.062744 654.620422 1974.292969 656.85083 1977.266968 C 659.081299 1979.497437 661.311707 1981.727783 662.798645 1982.471313 C 665.029053 1983.958252 667.259521 1983.958252 668.74646 1983.958252 C 670.976868 1983.214844 673.207275 1982.471313 675.437683 1980.984375 L 764.654724 1912.584717 C 766.885132 1911.097656 768.37207 1909.610718 769.115601 1908.123779 C 769.85907 1906.636841 769.85907 1904.406494 769.115601 1900.688965 C 768.37207 1898.458618 767.628601 1895.484741 766.141663 1892.510742 C 764.654724 1889.536865 763.167786 1887.306396 762.424316 1885.075928 L 768.37207 1880.615234 L 810.750183 1935.632324 L 804.802368 1940.093262 C 803.31543 1938.606323 801.82843 1936.375854 799.598022 1934.145386 C 797.367615 1931.915039 795.137207 1929.68457 792.906799 1928.941162 C 790.676331 1927.454102 788.445923 1926.710693 786.215515 1927.454102 C 783.985046 1928.19751 781.754639 1928.941162 780.2677 1930.427979 L 691.794189 1998.827637 C 690.30719 2000.314697 688.820251 2001.801758 687.333313 2004.031982 C 686.589844 2006.262451 686.589844 2008.49292 686.589844 2011.466797 C 687.333313 2012.953857 688.076782 2015.184082 689.563721 2018.158203 C 691.05072 2021.131958 692.537659 2024.105957 694.024597 2025.592773 L 687.333313 2030.053711 Z M 952.753906 2085.070801 C 951.266968 2083.583984 948.293091 2082.096924 944.575684 2079.866699 C 940.858337 2077.635986 937.884399 2076.892578 935.653992 2076.14917 C 932.680054 2075.405762 928.962708 2076.892578 924.501831 2079.866699 C 920.784485 2083.583984 915.5802 2087.30127 910.375793 2093.249023 L 832.310913 2175.03125 L 825.61969 2168.340088 L 844.950012 2012.210205 L 789.932861 2069.458008 C 783.985046 2076.14917 779.524231 2081.353516 776.550354 2085.814209 C 774.319885 2090.275146 772.832947 2093.992676 773.576416 2096.966309 C 773.576416 2099.940186 775.063354 2102.914307 778.037292 2107.375 C 781.011169 2111.835938 782.498108 2114.809814 783.985046 2116.296875 L 778.780762 2121.501221 L 732.685303 2077.635986 L 737.889648 2072.431885 C 739.376587 2073.918701 742.350464 2075.405762 746.06781 2077.635986 C 750.528687 2079.866699 753.502563 2081.353516 754.989563 2081.353516 C 758.706909 2081.353516 761.680847 2080.610107 765.398193 2077.635986 C 769.115601 2075.405762 774.319885 2070.944824 781.011169 2063.51001 L 833.797913 2008.49292 C 836.02832 2006.262451 837.515259 2003.288574 839.002197 2000.314697 C 840.489197 1997.34082 841.232666 1994.366943 840.489197 1991.392944 C 840.489197 1987.675537 839.002197 1983.958252 836.77179 1979.497437 C 834.541382 1975.036621 833.054443 1972.062744 830.823975 1969.832275 L 836.02832 1964.62793 L 867.997742 1995.110352 L 850.154358 2140.088135 L 900.710693 2087.30127 C 906.658447 2080.610107 911.119324 2075.405762 914.093201 2070.944824 C 916.323669 2066.483887 917.067078 2062.766602 917.067078 2060.536133 C 916.323669 2058.305908 914.836731 2054.588379 912.606262 2050.871094 C 910.375793 2047.153687 908.145447 2044.179688 906.658447 2041.949219 L 911.862793 2036.744873 L 957.214783 2079.866699 L 952.753906 2085.070801 Z M 1040.483887 2244.174561 C 1038.996948 2243.431152 1036.766479 2242.6875 1033.792725 2241.200439 C 1030.818726 2239.713623 1028.588379 2238.970215 1027.10144 2238.970215 C 1024.127441 2238.970215 1022.640564 2238.970215 1020.410156 2240.457275 C 1018.923218 2241.200439 1017.436218 2243.431152 1015.205811 2245.661377 L 1008.514526 2255.32666 C 1004.053711 2262.761475 1000.336365 2267.222168 998.849365 2270.196289 C 997.362427 2273.170166 995.875427 2274.656982 995.131958 2276.144043 C 984.723328 2274.656982 974.314697 2271.683105 965.393005 2268.709229 C 956.471313 2264.991699 947.549561 2261.274414 940.114807 2256.070068 C 931.936584 2250.122314 925.2453 2243.431152 920.041016 2235.25293 C 914.093201 2227.074463 911.119324 2218.152832 908.888916 2209.231201 C 907.401978 2198.82251 907.401978 2189.157227 909.632324 2178.748535 C 911.862793 2168.340088 915.5802 2157.931396 923.014954 2148.266113 C 928.962708 2138.601074 937.140991 2130.422852 946.062622 2124.475098 C 954.984314 2118.5271 964.649536 2114.066406 974.314697 2111.835938 C 983.979858 2109.605469 994.388489 2109.605469 1004.053711 2111.835938 C 1014.462341 2114.066406 1024.127441 2117.783691 1033.049194 2123.731445 C 1040.483887 2128.936035 1046.431763 2134.140137 1050.14917 2139.344482 C 1053.866455 2144.548828 1057.583862 2149.753174 1059.814331 2154.95752 L 1067.249023 2151.240234 L 1074.683838 2156.444336 L 1044.944824 2201.796387 L 1037.51001 2196.592041 C 1039.740479 2190.644287 1041.227417 2185.439941 1041.970947 2178.748535 C 1043.457886 2172.800781 1044.201294 2166.853027 1043.457886 2160.905273 C 1042.714355 2154.95752 1041.227417 2149.753174 1038.996948 2144.548828 C 1036.766479 2139.344482 1031.562256 2134.883789 1026.35791 2131.16626 C 1019.666687 2126.705322 1012.975403 2124.475098 1006.284119 2123.731445 C 999.592834 2122.988037 992.158081 2123.731445 985.466858 2126.705322 C 978.032104 2128.936035 971.34082 2133.396484 964.649536 2140.088135 C 957.214783 2146.035645 950.523499 2153.470459 944.575684 2162.392334 C 939.371338 2170.570313 934.910522 2178.748535 931.936584 2187.67041 C 928.962708 2195.848633 927.475769 2204.770264 927.475769 2212.205078 C 927.475769 2219.639648 929.706238 2227.818115 932.680054 2234.509277 C 936.397461 2241.200439 941.601807 2247.148438 948.293091 2251.609375 C 953.497375 2255.32666 958.701721 2257.557129 964.649536 2259.044189 C 969.853821 2260.531006 974.314697 2261.274414 977.288574 2260.531006 C 980.262451 2257.557129 982.49292 2255.32666 984.723328 2251.609375 C 986.953735 2248.635254 989.184204 2245.661377 989.927673 2243.431152 L 994.388489 2235.996338 C 996.618958 2233.765625 997.362427 2230.791992 998.105896 2228.561523 C 998.849365 2226.331055 998.849365 2223.357178 996.618958 2221.126953 C 995.131958 2218.89624 992.901611 2215.922363 989.927673 2213.692139 C 986.210327 2210.718262 983.979858 2208.487549 982.49292 2207.744141 L 986.953735 2200.309326 L 1043.457886 2238.226563 L 1040.483887 2244.174561 Z M 1427.834473 2269.452637 C 1425.604004 2269.452637 1423.373535 2270.196289 1418.912842 2270.939453 C 1415.195435 2271.683105 1411.478027 2272.426514 1409.247559 2274.656982 C 1407.017212 2276.144043 1404.786743 2279.861328 1404.043335 2285.065674 C 1403.299805 2290.27002 1402.556274 2296.217773 1402.556274 2304.395996 L 1402.556274 2371.308594 C 1402.556274 2379.486816 1401.069336 2386.921631 1397.351929 2393.612793 C 1393.634521 2400.304199 1389.173828 2405.508545 1383.225952 2409.22583 C 1378.021606 2412.943359 1371.330322 2415.916992 1365.382446 2417.404297 C 1358.691284 2419.634521 1353.486938 2420.37793 1347.539063 2420.37793 C 1338.617432 2420.37793 1329.695801 2418.891113 1323.004395 2416.660645 C 1315.569702 2414.43042 1309.621826 2410.712891 1304.417603 2406.995605 C 1299.956665 2402.534668 1296.23938 2398.07373 1294.008911 2392.869629 C 1291.035034 2387.665039 1290.291626 2381.717529 1290.291626 2376.512939 L 1290.291626 2285.809082 C 1290.291626 2282.835205 1289.548096 2280.604736 1288.804565 2279.117676 C 1288.061157 2277.630859 1286.574219 2275.400391 1283.60022 2274.656982 C 1282.113281 2273.170166 1279.882935 2272.426514 1276.908936 2271.683105 C 1273.935059 2270.939453 1271.704712 2270.939453 1270.217651 2270.939453 L 1270.217651 2262.761475 L 1334.156494 2262.761475 L 1334.156494 2270.939453 C 1331.926147 2270.939453 1329.695801 2270.939453 1326.721802 2271.683105 C 1323.747925 2272.426514 1321.517456 2273.170166 1320.030518 2273.170166 C 1317.056641 2273.913574 1315.569702 2275.400391 1314.826294 2277.630859 C 1314.082764 2279.861328 1313.339233 2282.091553 1313.339233 2285.065674 L 1313.339233 2369.821777 C 1313.339233 2373.539063 1314.082764 2378 1314.826294 2382.460693 C 1315.569702 2386.921631 1317.800171 2391.382568 1320.030518 2395.099854 C 1323.004395 2398.817383 1326.721802 2402.534668 1331.926147 2404.765137 C 1337.130493 2406.995605 1343.078247 2409.22583 1352 2409.22583 C 1360.178223 2409.22583 1366.869507 2407.739014 1372.073853 2404.765137 C 1377.278076 2402.534668 1381.739014 2399.560791 1384.712891 2395.099854 C 1387.686768 2391.382568 1389.917236 2386.921631 1391.404175 2382.460693 C 1392.147705 2378 1392.891113 2374.282715 1392.891113 2369.821777 L 1392.891113 2306.626465 C 1392.891113 2298.448242 1392.147705 2291.756836 1391.404175 2286.55249 C 1389.917236 2281.348389 1388.430298 2278.374268 1386.199829 2276.144043 C 1383.225952 2274.656982 1379.508545 2273.170166 1375.791138 2271.683105 C 1371.330322 2270.939453 1367.612915 2270.196289 1365.382446 2270.196289 L 1365.382446 2262.018066 L 1428.577881 2262.018066 L 1427.834473 2269.452637 Z M 1607.011841 2190.644287 C 1605.524902 2192.131348 1602.551147 2193.618164 1599.577148 2195.848633 C 1595.859741 2198.82251 1593.629395 2201.052979 1592.142334 2202.540039 C 1590.655518 2204.770264 1590.655518 2209.231201 1591.398926 2213.692139 C 1592.142334 2218.89624 1594.372803 2224.844238 1597.346802 2232.278809 L 1642.69873 2335.621826 L 1633.776978 2340.082764 L 1497.721069 2261.274414 L 1529.690552 2334.134766 C 1532.664429 2342.313232 1536.381714 2348.260986 1539.355713 2351.978516 C 1542.32959 2356.439209 1545.303589 2358.669678 1548.277466 2359.413086 C 1550.507813 2360.156494 1554.22522 2360.156494 1559.429565 2359.413086 C 1564.633789 2358.669678 1568.351196 2357.92627 1569.838135 2357.182617 L 1572.812134 2364.617432 L 1514.821045 2389.895508 L 1511.847168 2382.460693 C 1514.077515 2381.717529 1516.307983 2379.486816 1520.025391 2376.512939 C 1523.742676 2373.539063 1525.973145 2371.308594 1526.716675 2370.56543 C 1528.203613 2367.591309 1528.203613 2363.873779 1527.460083 2359.413086 C 1526.716675 2354.952393 1524.486206 2349.004395 1520.025391 2339.339355 L 1489.542969 2269.452637 C 1488.055908 2266.47876 1486.56897 2263.504883 1484.338501 2261.274414 C 1482.108154 2259.044189 1479.877686 2256.813477 1476.903809 2256.070068 C 1473.929932 2255.32666 1469.468994 2254.583252 1465.008179 2254.583252 C 1459.803955 2255.32666 1456.086548 2255.32666 1453.856079 2256.813477 L 1450.88208 2249.378906 L 1491.029907 2231.5354 L 1617.420654 2304.395996 L 1588.425049 2236.739746 C 1584.707642 2228.561523 1581.733765 2222.613525 1578.759888 2218.152832 C 1575.786011 2213.692139 1572.812134 2211.461426 1570.581665 2211.461426 C 1568.351196 2210.718262 1564.633789 2210.718262 1560.173096 2211.461426 C 1555.712158 2212.205078 1551.994751 2212.948486 1549.764282 2213.692139 L 1546.790527 2206.257324 L 1604.038086 2181.722412 L 1607.011841 2190.644287 Z M 1761.654663 2280.604736 L 1699.202881 2311.087402 L 1695.485474 2304.395996 C 1696.972412 2303.652588 1699.946289 2302.165527 1702.920288 2299.935303 C 1705.894043 2297.70459 1708.124512 2296.217773 1708.868042 2295.474365 C 1710.35498 2293.243652 1711.841919 2291.013428 1711.841919 2289.526367 C 1711.841919 2287.296143 1711.841919 2285.065674 1710.35498 2282.835205 L 1660.542236 2182.466064 C 1659.798706 2180.235596 1658.311768 2178.005127 1656.824829 2177.261719 C 1655.337769 2176.518311 1653.107422 2175.774902 1649.390015 2175.774902 C 1647.159546 2175.774902 1644.185669 2176.518311 1641.211792 2177.261719 C 1637.494385 2178.005127 1635.263916 2178.748535 1633.033569 2179.492188 L 1629.316162 2172.800781 L 1691.768066 2142.318359 L 1695.485474 2149.009766 C 1693.255005 2149.753174 1691.024536 2151.240234 1688.794189 2153.470459 C 1686.563843 2154.95752 1683.589844 2157.187988 1682.102905 2158.674805 C 1679.872437 2160.161621 1679.129028 2163.135742 1679.129028 2165.366211 C 1679.129028 2166.853027 1679.872437 2169.083496 1680.615967 2171.313965 L 1729.685303 2271.683105 C 1730.428833 2273.913574 1731.915771 2275.400391 1734.146118 2276.887451 C 1735.633057 2278.374268 1737.863525 2278.374268 1740.837402 2278.374268 C 1742.324463 2278.374268 1745.29834 2277.630859 1748.272095 2276.887451 C 1751.246094 2276.144043 1754.219971 2275.400391 1756.450439 2274.656982 L 1761.654663 2280.604736 Z M 1837.489136 2037.488403 C 1836.002197 2038.975464 1834.515259 2041.205811 1833.02832 2042.692871 C 1831.541382 2044.923096 1830.797852 2047.153687 1830.054443 2049.384033 C 1829.311035 2052.35791 1828.567505 2054.588379 1829.311035 2057.562256 C 1830.054443 2059.792725 1830.054443 2063.51001 1830.797852 2066.483887 C 1834.515259 2079.123047 1839.719604 2097.709961 1847.154297 2122.244629 C 1855.332642 2147.522949 1862.767334 2173.544434 1870.945557 2201.052979 L 1864.254272 2206.257324 C 1838.232666 2191.387695 1813.697998 2176.518311 1789.906738 2161.648926 C 1766.115601 2147.522949 1749.759155 2137.857422 1741.580933 2132.65332 C 1739.350464 2131.909668 1737.119995 2130.422852 1734.889648 2130.422852 L 1727.454956 2130.422852 C 1725.224487 2131.16626 1722.994019 2131.16626 1720.76355 2132.65332 C 1718.533081 2133.396484 1716.302856 2134.883789 1714.815796 2135.627197 L 1709.61145 2129.679199 L 1759.424316 2090.275146 L 1764.628662 2096.2229 C 1760.167725 2099.940186 1757.19397 2103.657715 1754.963501 2105.888184 C 1752.733032 2108.862061 1751.989502 2111.092285 1753.476563 2112.579346 L 1755.706909 2114.809814 C 1756.450439 2115.553223 1757.19397 2116.296875 1757.937378 2116.296875 C 1764.628662 2120.01416 1775.037231 2125.961914 1789.906738 2134.883789 C 1804.776245 2144.548828 1825.593628 2156.444336 1853.102173 2172.800781 C 1848.641235 2158.674805 1844.180542 2142.318359 1838.232666 2123.731445 C 1832.28479 2105.144531 1827.824097 2092.505371 1825.593628 2085.070801 C 1823.363159 2078.379395 1821.876221 2073.918701 1820.389282 2071.688232 C 1818.902222 2069.458008 1818.158813 2067.227539 1816.671875 2066.483887 C 1815.928467 2064.99707 1813.697998 2064.253418 1812.21106 2064.99707 C 1809.980591 2064.99707 1808.493652 2065.740723 1805.519775 2066.483887 C 1803.289307 2067.227539 1801.05896 2068.714355 1798.085083 2070.201172 C 1795.854614 2071.688232 1794.367676 2072.431885 1792.137207 2073.918701 L 1786.932983 2067.970947 L 1832.28479 2032.28418 L 1837.489136 2037.488403 Z M 2009.975464 1987.675537 L 2042.688232 2018.901611 L 1960.906006 2117.040283 L 1954.958252 2112.579346 C 1956.44519 2111.092285 1957.932129 2108.118652 1960.162476 2105.144531 C 1961.649536 2102.170898 1963.136475 2099.940186 1963.136475 2098.453369 C 1963.879883 2096.2229 1963.879883 2093.992676 1963.136475 2092.505371 C 1962.392944 2090.275146 1960.906006 2088.788086 1958.675537 2087.30127 L 1873.176025 2015.927734 C 1871.689087 2014.440674 1869.458618 2013.697266 1867.228149 2012.953857 C 1865.741211 2012.210205 1863.510742 2012.210205 1860.536865 2013.697266 C 1858.306519 2014.440674 1856.81958 2015.927734 1853.845703 2018.158203 C 1850.871704 2020.38855 1849.384766 2021.875488 1847.154297 2023.362427 L 1841.206543 2018.901611 L 1917.784424 1926.710693 L 1946.036499 1950.501831 L 1940.832275 1956.449707 C 1935.62793 1954.219238 1928.936646 1952.7323 1921.501831 1952.7323 C 1913.32373 1952.7323 1908.119263 1954.219238 1904.401855 1956.449707 C 1902.914917 1957.936523 1900.68457 1960.166992 1898.454224 1961.654053 C 1896.223755 1963.884399 1893.993286 1966.858276 1891.019409 1969.832275 L 1876.149902 1988.419189 L 1922.98877 2027.823242 L 1934.140869 2014.440674 C 1937.858276 2009.979858 1940.088745 2007.005981 1940.832275 2004.031982 C 1941.575684 2001.058105 1941.575684 1998.084229 1940.832275 1995.853882 C 1940.088745 1992.879883 1939.345337 1990.649536 1937.114868 1986.932129 C 1934.884399 1983.958252 1933.397461 1980.984375 1931.166992 1978.753906 L 1936.371338 1972.806152 L 1982.466797 2011.466797 L 1977.262451 2017.414551 C 1974.288574 2015.927734 1970.571289 2013.697266 1966.853882 2012.210205 C 1963.136475 2010.723389 1960.162476 2009.979858 1957.932129 2009.979858 C 1954.214844 2009.979858 1951.240845 2010.723389 1949.010376 2012.210205 C 1946.036499 2013.697266 1943.806152 2016.671143 1940.832275 2020.38855 L 1929.680054 2033.770996 L 1965.366943 2063.51001 C 1969.084351 2066.483887 1972.058105 2068.714355 1974.288574 2070.201172 C 1976.519043 2071.688232 1979.49292 2071.688232 1981.723389 2071.688232 C 1983.953857 2070.944824 1986.184204 2069.458008 1989.158081 2067.227539 C 1991.38855 2064.99707 1994.362427 2061.279785 1998.079834 2056.818848 C 1999.566772 2055.331787 2001.797119 2053.101563 2004.027588 2049.384033 C 2007.001465 2047.153687 2008.488403 2044.179688 2009.975464 2041.949219 C 2011.462402 2039.718994 2012.949341 2036.744873 2014.436279 2033.770996 C 2015.923096 2031.540771 2015.923096 2029.310303 2015.923096 2027.079834 C 2015.923096 2021.875488 2013.692871 2015.927734 2010.718872 2008.49292 C 2007.744995 2001.058105 2004.770996 1996.59729 2003.284058 1993.623413 L 2009.975464 1987.675537 Z M 2138.596436 1843.441406 L 2118.522705 1879.128296 C 2101.422607 1880.615234 2086.553223 1882.102173 2073.914063 1883.589111 C 2061.275146 1885.075928 2047.892578 1886.562988 2033.766602 1888.793457 L 2026.331909 1902.919434 L 2069.453369 1925.967163 C 2071.683594 1927.454102 2073.914063 1928.19751 2076.144531 1928.19751 C 2078.375 1928.19751 2080.605469 1927.454102 2082.835938 1925.967163 C 2084.322998 1925.223755 2085.066406 1922.993286 2087.296631 1920.762817 C 2089.5271 1918.532471 2091.01416 1915.558594 2091.757568 1913.328125 L 2098.448975 1917.04541 L 2067.2229 1974.292969 L 2060.531494 1970.575684 C 2061.275146 1969.088745 2062.018555 1966.858276 2063.505615 1963.140869 C 2064.992432 1960.166992 2064.992432 1957.936523 2065.736084 1957.193115 C 2065.736084 1954.962646 2065.736084 1952.7323 2064.249023 1951.245361 C 2062.761963 1949.758423 2061.275146 1948.271484 2059.044678 1946.784424 L 1960.906006 1893.254272 L 1954.214844 1891.023926 C 1951.984375 1890.280518 1949.753906 1891.767334 1947.523438 1893.254272 C 1946.036499 1894.741211 1944.549561 1896.97168 1942.319214 1899.202148 C 1940.088745 1901.432617 1938.601807 1903.662842 1937.858276 1905.149902 L 1931.166992 1901.432617 L 1965.366943 1838.237183 C 1968.34082 1832.289307 1972.058105 1827.085083 1975.775513 1823.367676 C 1979.49292 1818.906738 1983.953857 1815.189453 1989.158081 1812.215576 C 1993.618896 1809.241577 1998.823364 1808.498169 2004.770996 1808.498169 C 2009.975464 1808.498169 2015.923096 1809.985107 2021.127563 1812.958984 C 2026.331909 1815.932861 2030.792603 1819.650391 2033.766602 1823.367676 C 2036.740479 1827.085083 2038.970947 1830.80249 2040.457886 1836.006714 C 2041.944824 1840.467529 2041.944824 1844.928467 2041.944824 1850.13269 C 2041.201416 1854.593628 2040.457886 1860.541504 2039.714478 1865.745728 C 2052.353516 1864.258789 2062.761963 1862.02832 2071.683594 1861.284912 C 2079.862061 1859.797852 2090.270508 1858.311035 2102.909668 1856.823975 C 2108.114014 1856.080566 2112.574951 1855.337036 2115.548828 1853.850098 C 2118.522705 1852.363159 2121.496582 1850.876221 2123.727051 1849.389282 C 2125.95752 1847.902344 2127.444336 1846.415283 2128.931396 1844.184814 C 2130.418213 1841.95459 2131.905273 1839.724121 2132.648682 1838.980591 L 2138.596436 1843.441406 Z M 2009.975464 1838.980591 C 2001.797119 1834.519775 1993.618896 1833.032715 1986.184204 1835.263184 C 1978.74939 1837.493652 1972.801636 1842.697998 1968.34082 1851.619629 L 1959.419067 1867.976196 L 2018.153564 1899.202148 L 2024.844971 1886.562988 C 2029.305664 1877.641357 2030.792603 1868.719604 2028.562256 1859.797852 C 2025.588379 1850.876221 2019.640503 1844.184814 2009.975464 1838.980591 Z M 2098.448975 1711.102905 C 2102.909668 1708.872437 2107.370605 1707.385498 2111.831543 1707.385498 C 2116.292236 1706.64209 2121.496582 1707.385498 2126.700928 1708.872437 C 2140.083496 1711.846436 2149.748535 1720.024658 2155.696533 1731.920166 C 2161.644287 1743.815674 2163.131104 1757.198364 2158.67041 1771.324463 C 2157.18335 1777.272217 2154.209473 1784.706909 2150.492188 1790.654785 C 2146.774658 1797.346069 2142.313721 1801.806885 2138.596436 1805.52417 L 2145.287842 1812.215576 L 2143.057373 1821.137207 L 2091.757568 1809.241577 L 2093.988037 1801.063477 C 2100.679199 1801.063477 2106.627197 1800.319824 2112.574951 1798.833008 C 2118.522705 1798.089478 2123.727051 1796.602539 2128.931396 1793.628662 C 2134.135742 1790.654785 2138.596436 1786.937256 2142.313721 1783.219971 C 2146.03125 1778.759155 2149.005127 1773.554688 2150.492188 1766.863525 C 2151.979004 1762.402588 2151.979004 1757.198364 2151.979004 1753.480957 C 2151.979004 1749.020264 2150.492188 1746.046143 2149.005127 1743.072266 C 2147.518311 1740.098389 2144.544189 1737.868042 2142.313721 1735.637695 C 2139.340088 1734.150635 2135.622559 1732.663574 2131.905273 1731.176758 C 2125.95752 1729.689697 2120.009521 1729.689697 2114.061768 1731.920166 C 2108.114014 1734.150635 2102.909668 1738.61145 2098.448975 1744.559326 C 2095.475098 1749.020264 2091.757568 1753.480957 2088.040283 1758.685303 C 2084.322998 1763.889648 2080.605469 1768.350464 2077.631592 1772.811279 C 2071.683594 1780.246094 2064.992432 1784.706909 2057.557617 1788.424316 C 2050.123047 1791.398193 2041.201416 1792.141602 2031.536133 1789.167725 C 2025.588379 1787.680908 2021.127563 1784.706909 2015.923096 1780.989502 C 2011.462402 1777.272217 2008.488403 1773.554688 2005.514526 1767.607056 C 2002.540649 1762.402588 2001.053589 1757.198364 2000.310181 1751.250488 C 1999.566772 1744.559326 2000.310181 1738.61145 2001.797119 1732.663574 C 2004.027588 1725.972412 2006.258057 1720.024658 2009.975464 1714.820313 C 2013.692871 1709.615967 2017.410156 1705.155029 2021.127563 1702.181152 L 2014.436279 1695.489868 L 2016.666626 1686.568237 L 2066.479492 1698.463867 L 2064.249023 1707.385498 C 2058.30127 1707.385498 2052.353516 1707.385498 2046.40564 1708.129028 C 2040.457886 1708.872437 2035.25354 1709.615967 2030.049194 1711.846436 C 2024.844971 1714.076782 2021.127563 1717.050781 2017.410156 1720.768066 C 2013.692871 1724.485474 2011.462402 1728.946289 2009.231934 1735.637695 C 2007.744995 1742.328857 2008.488403 1749.020264 2011.462402 1754.224487 C 2014.436279 1760.172363 2019.640503 1763.889648 2025.588379 1765.376587 C 2032.279663 1766.863525 2037.484009 1766.863525 2042.688232 1764.633057 C 2047.892578 1763.14624 2052.353516 1759.428711 2056.814209 1754.224487 C 2060.531494 1749.763672 2064.249023 1745.302734 2067.2229 1740.841919 C 2070.196777 1736.381104 2073.914063 1731.920166 2076.888184 1728.202881 C 2079.862061 1724.485474 2082.835938 1720.768066 2085.809814 1717.794189 C 2091.01416 1716.307129 2094.731445 1713.333374 2098.448975 1711.102905 Z M 2190.639648 1609.246826 L 2180.974609 1678.390137 L 2173.539795 1677.646484 C 2173.539795 1675.416016 2174.283203 1672.442139 2174.283203 1668.724854 C 2175.026855 1665.007446 2174.283203 1662.776978 2174.283203 1660.546509 C 2173.539795 1658.316162 2172.796387 1656.085815 2171.309326 1655.342285 C 2169.82251 1653.855347 2167.592041 1653.111816 2164.618164 1653.111816 L 2053.840332 1638.24231 L 2047.892578 1638.24231 C 2046.40564 1638.98584 2044.175171 1640.472778 2042.688232 1643.446655 C 2041.944824 1645.677002 2040.457886 1647.907471 2038.970947 1650.881348 C 2037.484009 1653.855347 2036.740479 1656.829224 2035.99707 1659.05957 L 2028.562256 1658.316162 L 2038.227417 1589.173096 L 2045.662109 1589.916504 L 2045.662109 1598.094727 C 2045.662109 1601.068604 2045.662109 1604.042603 2046.40564 1606.272827 C 2047.14917 1608.503296 2047.892578 1610.733765 2050.123047 1612.220703 C 2051.609863 1613.707642 2053.840332 1614.451172 2056.070801 1614.451172 L 2166.848633 1630.064087 C 2169.079102 1630.807495 2171.309326 1630.064087 2173.539795 1629.320679 C 2175.770264 1628.577148 2177.257324 1627.09021 2178.744141 1624.116333 C 2179.487549 1622.629395 2180.974609 1620.398926 2181.718018 1617.424927 C 2183.205078 1613.707642 2183.948486 1610.733765 2183.948486 1608.503296 L 2190.639648 1609.246826 Z M 2092.500977 1425.608521 L 2091.757568 1433.043335 C 2088.783691 1433.786743 2085.809814 1434.530273 2082.092529 1436.76062 C 2078.375 1438.247559 2074.657715 1440.478027 2071.683594 1441.964966 C 2068.709961 1444.195435 2065.736084 1446.425781 2062.761963 1449.39978 C 2059.788086 1451.630127 2058.30127 1453.860474 2058.30127 1456.834473 C 2057.557617 1459.064941 2057.557617 1462.038818 2056.814209 1465.012573 C 2056.814209 1468.72998 2056.070801 1471.703979 2056.070801 1474.677856 L 2055.327393 1481.369141 L 2178.744141 1485.829956 C 2180.974609 1485.829956 2183.205078 1485.829956 2185.435303 1484.343018 C 2187.665771 1483.599487 2189.152832 1481.369141 2189.89624 1479.138672 C 2190.639648 1477.651855 2191.383301 1475.421387 2192.870117 1470.960449 C 2193.61377 1466.499634 2194.357178 1463.525757 2194.357178 1461.295288 L 2201.791748 1461.295288 L 2198.817871 1534.155884 L 2191.383301 1533.412476 C 2191.383301 1531.925415 2190.639648 1528.208008 2190.639648 1523.747192 C 2190.639648 1519.286377 2189.89624 1517.055908 2189.152832 1514.825562 C 2188.409424 1512.595093 2186.922363 1510.364624 2185.435303 1509.621094 C 2183.948486 1508.134155 2180.974609 1508.134155 2178.000732 1507.390747 L 2053.840332 1502.929932 L 2053.840332 1527.4646 C 2053.840332 1529.695068 2055.327393 1532.668945 2057.557617 1535.6427 C 2059.788086 1537.873169 2062.761963 1540.847168 2065.736084 1543.077515 C 2068.709961 1545.307983 2072.427246 1547.538452 2076.144531 1549.768799 C 2079.862061 1551.255737 2082.835938 1552.742676 2085.066406 1553.486206 L 2084.322998 1560.921021 L 2042.688232 1559.434082 L 2047.892578 1424.86499 L 2092.500977 1425.608521 Z M 2060.531494 1256.8396 C 2060.531494 1257.58313 2061.275146 1259.813599 2062.018555 1262.787476 C 2063.505615 1265.017944 2064.249023 1267.248291 2064.992432 1268.735229 C 2066.479492 1271.709106 2067.966309 1273.196167 2068.709961 1274.683105 C 2069.453369 1275.426514 2072.427246 1277.656982 2076.144531 1280.630859 C 2084.322998 1286.578613 2092.500977 1291.783081 2099.935791 1296.987305 C 2108.114014 1301.44812 2118.522705 1307.395996 2130.418213 1314.830688 C 2134.87915 1317.804688 2138.596436 1320.035034 2141.570313 1320.035034 C 2144.544189 1321.522095 2148.261719 1321.522095 2153.466064 1321.522095 L 2183.205078 1322.265503 C 2186.178955 1322.265503 2188.409424 1321.522095 2190.639648 1320.778564 C 2192.126709 1320.035034 2193.61377 1317.804688 2195.100586 1315.574219 C 2195.844238 1314.08728 2196.587646 1311.113281 2197.331055 1307.395996 C 2198.074463 1303.678589 2198.817871 1300.704712 2198.817871 1298.474243 L 2206.996338 1298.474243 L 2205.509277 1370.591309 L 2198.074463 1369.8479 C 2198.074463 1367.617432 2197.331055 1365.387085 2197.331055 1360.926147 C 2197.331055 1357.20874 2196.587646 1354.234863 2195.844238 1352.747925 C 2195.100586 1349.774048 2192.870117 1348.287109 2191.383301 1347.543701 C 2189.152832 1346.056641 2186.922363 1346.056641 2183.948486 1346.056641 L 2146.03125 1345.313232 C 2144.544189 1344.569702 2143.057373 1346.056641 2139.340088 1346.800171 C 2136.366211 1348.287109 2132.648682 1349.774048 2128.931396 1351.260986 C 2120.009521 1355.721802 2111.087891 1360.182739 2101.422607 1365.387085 C 2091.757568 1370.591309 2082.835938 1375.052246 2076.144531 1378.769653 C 2071.683594 1381 2068.709961 1382.486938 2066.479492 1385.460815 C 2064.249023 1386.947754 2062.761963 1389.178223 2060.531494 1391.408691 C 2059.788086 1392.89563 2058.30127 1395.125977 2058.30127 1398.099854 C 2057.557617 1400.330322 2056.814209 1402.560791 2056.814209 1404.79126 L 2049.379395 1404.79126 L 2050.123047 1338.621826 L 2058.30127 1338.621826 C 2058.30127 1346.056641 2058.30127 1351.260986 2059.788086 1354.978394 C 2060.531494 1357.952271 2062.018555 1359.439209 2063.505615 1359.439209 C 2064.249023 1359.439209 2064.992432 1359.439209 2065.736084 1358.695801 C 2067.2229 1357.952271 2068.709961 1357.20874 2070.196777 1357.20874 C 2072.427246 1356.465332 2074.657715 1354.978394 2076.888184 1353.491333 C 2079.118408 1352.004395 2082.092529 1351.260986 2084.322998 1349.774048 C 2091.01416 1346.800171 2097.705322 1343.082764 2103.653076 1339.365356 C 2110.344482 1336.391602 2118.522705 1331.187134 2128.931396 1325.982788 C 2111.087891 1314.830688 2096.961914 1305.165527 2086.553223 1299.217773 C 2076.888184 1293.27002 2070.196777 1290.296021 2068.709961 1290.296021 C 2067.2229 1290.296021 2065.736084 1291.039551 2064.249023 1291.783081 C 2063.505615 1292.526489 2062.761963 1294.013428 2062.018555 1296.243774 C 2061.275146 1298.474243 2060.531494 1300.704712 2060.531494 1302.935181 C 2060.531494 1305.165527 2060.531494 1308.139526 2059.788086 1309.626343 L 2051.609863 1309.626343 L 2053.096924 1256.096191 L 2060.531494 1256.8396 Z M 1293.265381 1895.484741 C 1287.317627 1895.484741 1282.856812 1897.71521 1278.395874 1902.919434 C 1273.935059 1907.380249 1271.704712 1913.328125 1271.704712 1920.762817 C 1271.704712 1927.454102 1273.935059 1932.658447 1277.652466 1937.119263 C 1281.369873 1941.580078 1286.574219 1943.067139 1292.521973 1943.067139 C 1298.469727 1943.067139 1302.930664 1940.83667 1307.391479 1937.119263 C 1311.108887 1932.658447 1313.339233 1926.710693 1313.339233 1920.019409 C 1313.339233 1912.584717 1311.852295 1906.636841 1307.391479 1902.919434 C 1303.674072 1897.71521 1299.213257 1895.484741 1293.265381 1895.484741 Z M 1391.404175 1895.484741 C 1386.199829 1895.484741 1380.995483 1897.71521 1377.278076 1902.919434 C 1372.817261 1908.86731 1370.586914 1920.762817 1370.586914 1938.606323 C 1370.586914 1955.706055 1372.817261 1966.858276 1376.534546 1972.806152 C 1380.995483 1978.753906 1385.456421 1981.727783 1391.404175 1981.727783 C 1397.351929 1981.727783 1401.812866 1978.753906 1406.273682 1972.806152 C 1409.990967 1966.858276 1412.221436 1955.706055 1412.221436 1938.606323 C 1412.221436 1921.506348 1409.990967 1909.610718 1406.273682 1904.406494 C 1401.812866 1898.458618 1397.351929 1895.484741 1391.404175 1895.484741 Z"/>
    <path id="path3" fill="#6a005f" stroke="none" d="M 1969.827759 877.66748 L 735.65918 877.66748 C 734.172241 877.66748 734.172241 879.897827 733.428772 881.384766 C 731.941833 1039.744995 734.172241 1203.309448 733.428772 1357.952271 C 731.941833 1514.082031 754.989563 1656.085815 805.545837 1766.863525 C 855.358704 1876.897949 937.140991 1956.449707 1030.075317 2022.618896 C 1124.496582 2089.531738 1242.709106 2125.961914 1352 2181.722412 C 1460.547363 2125.218506 1578.759888 2089.531738 1672.437744 2021.131958 C 1765.37207 1954.219238 1849.384766 1876.897949 1898.454224 1765.376587 C 1947.523438 1653.855347 1969.827759 1516.3125 1969.827759 1354.978394 C 1970.571289 1199.592041 1972.058105 1034.540649 1969.827759 877.66748 Z M 1018.923218 1578.020874 C 1102.935791 1534.155884 1186.948486 1486.573486 1252.374268 1423.378052 C 1208.509277 1433.786743 1174.309448 1435.273682 1137.87915 1434.530273 C 1143.826904 1424.86499 1153.492188 1418.917236 1161.67041 1411.482422 C 1216.6875 1359.439209 1279.139404 1310.369873 1308.878418 1231.561523 C 1288.804565 1238.252808 1262.782959 1244.200562 1235.274414 1244.200562 C 1289.548096 1175.057373 1331.926147 1094.018677 1354.230347 993.649536 L 1357.204346 993.649536 C 1379.508545 1094.018677 1422.630127 1174.313965 1476.1604 1244.200562 C 1452.369141 1242.713623 1431.55188 1241.970093 1404.043335 1230.817993 C 1405.530273 1242.713623 1411.478027 1253.865723 1416.682373 1263.531006 C 1443.447388 1312.60022 1486.56897 1351.260986 1525.973145 1389.178223 C 1542.32959 1404.047729 1559.429565 1417.430298 1573.555542 1434.530273 C 1528.947021 1438.247559 1508.873169 1435.273682 1460.547363 1421.891113 C 1476.1604 1440.478027 1496.977661 1454.604004 1516.307983 1469.473511 C 1568.351196 1511.851563 1630.803223 1543.821045 1693.998535 1577.277466 C 1699.202881 1579.507813 1706.637573 1581.738281 1708.868042 1588.429565 C 1656.824829 1595.864258 1598.83374 1592.146851 1542.32959 1573.560059 C 1473.186401 1549.768799 1408.504028 1548.281982 1360.178223 1593.633789 C 1306.647949 1550.512207 1253.117798 1549.768799 1166.874634 1572.816528 C 1117.805298 1588.429565 1053.866455 1595.120728 1001.823242 1588.429565 C 1004.79718 1581.738281 1012.975403 1580.994751 1018.923218 1578.020874 Z M 1209.252808 1989.906006 L 1196.613647 1989.906006 L 1196.613647 1908.123779 C 1193.639771 1911.841187 1189.178955 1914.071533 1183.974609 1916.302002 C 1179.513794 1919.275879 1175.052979 1921.506348 1170.592041 1923.736816 L 1170.592041 1911.841187 C 1178.026733 1908.123779 1183.974609 1903.662842 1189.178955 1899.202148 C 1194.383301 1893.997803 1198.100708 1889.536865 1200.331055 1885.075928 L 1208.509277 1885.075928 L 1209.252808 1989.906006 Z M 1323.747925 1967.601807 C 1320.773926 1975.780029 1316.313232 1981.727783 1310.365356 1985.445068 C 1304.417603 1989.906006 1297.726318 1992.136475 1290.291626 1992.136475 C 1282.113281 1992.136475 1275.422119 1989.906006 1270.217651 1985.445068 C 1265.013428 1980.984375 1262.039551 1975.036621 1260.552612 1966.114868 L 1272.44812 1964.62793 C 1273.935059 1970.575684 1276.165527 1975.036621 1279.139404 1977.266968 C 1282.113281 1980.240845 1285.830688 1980.984375 1290.291626 1980.984375 C 1294.008911 1980.984375 1297.726318 1980.240845 1300.700195 1978.010376 C 1303.674072 1976.523438 1305.904541 1973.549561 1308.134888 1970.575684 C 1310.365356 1967.601807 1311.852295 1963.140869 1312.595825 1958.680176 C 1314.082764 1953.47583 1314.826294 1948.271484 1314.826294 1943.067139 L 1314.826294 1940.093262 C 1312.595825 1944.553955 1308.878418 1948.271484 1304.417603 1950.501831 C 1299.956665 1952.7323 1294.752441 1954.219238 1290.291626 1954.219238 C 1281.369873 1954.219238 1273.935059 1950.501831 1267.987305 1944.553955 C 1262.039551 1937.862793 1258.322144 1929.68457 1258.322144 1919.275879 C 1258.322144 1908.86731 1261.296021 1899.945557 1267.987305 1893.997803 C 1274.678589 1887.306396 1282.113281 1884.33252 1291.035034 1884.33252 C 1298.469727 1884.33252 1304.417603 1885.81958 1310.365356 1889.536865 C 1315.569702 1893.254272 1320.030518 1898.458618 1323.747925 1905.893311 C 1325.978394 1912.584717 1328.20874 1922.249756 1328.20874 1934.888916 C 1328.20874 1949.014893 1325.978394 1959.423584 1323.747925 1967.601807 Z M 1421.886597 1968.345337 C 1419.65625 1975.780029 1415.938843 1981.727783 1410.734497 1985.445068 C 1405.530273 1989.906006 1399.582397 1992.136475 1391.404175 1992.136475 C 1380.995483 1992.136475 1373.560791 1988.419189 1367.612915 1980.984375 C 1360.921753 1972.806152 1357.204346 1957.936523 1357.204346 1938.606323 C 1357.204346 1925.967163 1358.691284 1916.302002 1360.921753 1908.86731 C 1363.895508 1901.432617 1367.612915 1895.484741 1372.073853 1891.767334 C 1377.278076 1887.306396 1383.225952 1885.075928 1391.404175 1885.075928 C 1397.351929 1885.075928 1401.812866 1885.81958 1406.273682 1888.050049 C 1410.734497 1890.280518 1413.708374 1893.254272 1416.682373 1897.71521 C 1419.65625 1902.176025 1421.143188 1907.380249 1423.373535 1913.328125 C 1424.860474 1919.275879 1425.604004 1927.454102 1425.604004 1937.862793 C 1425.604004 1950.501831 1424.117065 1960.910645 1421.886597 1968.345337 Z M 1522.999268 1989.906006 L 1453.856079 1989.906006 C 1453.856079 1986.932129 1454.599487 1983.214844 1455.343018 1980.984375 C 1456.829956 1976.523438 1459.803955 1971.319092 1464.264648 1966.858276 C 1467.982056 1962.397461 1473.929932 1957.193115 1480.621094 1950.501831 C 1491.773315 1940.83667 1499.208008 1934.145386 1503.668945 1928.19751 C 1507.38623 1922.993286 1509.616699 1917.789063 1509.616699 1912.584717 C 1509.616699 1907.380249 1507.38623 1902.919434 1503.668945 1899.945557 C 1499.951538 1896.228149 1495.490601 1894.741211 1489.542969 1894.741211 C 1483.595093 1894.741211 1478.390747 1896.97168 1474.673462 1900.688965 C 1470.956055 1904.406494 1469.468994 1909.610718 1469.468994 1915.558594 L 1456.086548 1914.071533 C 1457.573486 1904.406494 1460.547363 1896.97168 1466.495117 1891.767334 C 1472.442993 1886.562988 1480.621094 1884.33252 1490.286377 1884.33252 C 1500.695068 1884.33252 1508.129761 1886.562988 1514.077515 1892.510742 C 1520.025391 1898.458618 1522.999268 1905.149902 1522.999268 1913.328125 C 1522.999268 1917.04541 1522.255737 1921.506348 1520.768799 1925.967163 C 1519.281982 1929.68457 1516.307983 1934.145386 1512.590576 1938.606323 C 1508.873169 1943.067139 1502.182007 1949.014893 1492.516724 1956.449707 C 1485.082031 1963.140869 1479.877686 1967.601807 1477.647339 1969.832275 C 1475.41687 1972.062744 1473.929932 1974.292969 1472.442993 1977.266968 L 1523.742676 1977.266968 L 1522.999268 1989.906006 Z M 1416.682373 1698.463867 L 1419.65625 1725.972412 L 1299.956665 1725.972412 L 1303.674072 1698.463867 L 928.219238 1698.463867 L 975.058167 1641.216309 C 1014.462341 1638.98584 1091.783691 1629.320679 1157.209473 1604.786011 C 1285.087158 1557.203613 1362.408569 1622.629395 1362.408569 1622.629395 C 1423.373535 1571.32959 1499.951538 1581.738281 1571.325195 1608.503296 C 1638.237915 1633.037964 1740.093994 1640.472778 1740.093994 1640.472778 L 1783.958984 1699.207275 L 1416.682373 1698.463867 Z"/>
</svg>
