<?xml version="1.0" encoding="UTF-8" standalone="no"?>
<!DOCTYPE svg PUBLIC "-//W3C//DTD SVG 1.1//EN" "http://www.w3.org/Graphics/SVG/1.1/DTD/svg11.dtd">
<svg xmlns:dc="http://purl.org/dc/elements/1.1/" xmlns:xl="http://www.w3.org/1999/xlink" version="1.1" xmlns="http://www.w3.org/2000/svg" viewBox="0 0 57 57" width="57" height="57">
  <defs/>
  <g id="Canvas_1" fill-opacity="1" stroke-dasharray="none" stroke-opacity="1" fill="none" stroke="none">
    <title>Canvas 1</title>
    <g id="Canvas_1_Layer_1">
      <title>Layer 1</title>
      <g id="Graphic_2">
        <path d="M 33.519 7.0577 C 33.357 8.0927 32.568 8.4957 31.595 8.3437 C 30.511 8.1737 29.895 7.5647 30.008 6.8427 L 30.485 3.7997 C 30.572 3.2447 29.932 3.4217 29.962 3.2267 C 29.971 3.1717 30.004 3.1407 30.116 3.1587 C 30.47 3.2137 30.8 3.2807 31.079 3.3237 C 31.357 3.3677 31.692 3.4057 32.046 3.4607 C 32.158 3.4777 32.18 3.5167 32.171 3.5727 C 32.141 3.7667 31.585 3.4027 31.498 3.9587 L 31.023 7.0007 C 30.933 7.5707 31.336 8.0887 31.913 8.1797 C 32.642 8.2937 33.216 7.8997 33.345 7.0737 L 33.675 4.9687 C 33.768 4.3707 33.6 3.9957 33.296 3.8407 C 33.198 3.7897 33.094 3.7667 33.105 3.7037 C 33.111 3.6627 33.13 3.6307 33.213 3.6437 C 33.394 3.6717 33.663 3.7277 33.948 3.7727 C 34.233 3.8177 34.505 3.8457 34.686 3.8737 C 34.77 3.8867 34.778 3.9237 34.772 3.9657 C 34.761 4.0287 34.657 4.0187 34.546 4.0367 C 34.211 4.0907 33.935 4.3977 33.842 4.9947 Z" fill="#761638"/>
      </g>
      <g id="Graphic_3">
        <path d="M 35.6118 8.0792 C 35.3848 8.5942 35.4968 8.8962 35.6528 9.0652 C 35.7988 9.2222 35.9948 9.2322 35.9468 9.3422 C 35.9288 9.3802 35.9018 9.4062 35.8248 9.3722 C 35.6058 9.2752 35.3618 9.1512 35.0968 9.0352 C 34.8338 8.9192 34.5768 8.8212 34.3588 8.7252 C 34.2818 8.6902 34.2828 8.6522 34.2998 8.6132 C 34.3478 8.5042 34.4868 8.6422 34.7008 8.6442 C 34.9308 8.6462 35.2308 8.5252 35.4578 8.0112 L 36.6998 5.2002 C 36.6238 4.7972 36.4808 4.6342 36.2868 4.5172 C 36.1888 4.4592 36.1438 4.4392 36.1748 4.3692 C 36.1978 4.3172 36.2318 4.3092 36.2838 4.3322 C 36.5028 4.4292 36.7348 4.5472 36.9718 4.6512 L 37.6928 4.9702 L 38.7168 8.8822 L 38.7298 8.8882 L 39.5708 6.9832 C 39.7988 6.4692 39.6858 6.1662 39.5298 5.9972 C 39.3838 5.8402 39.1878 5.8302 39.2368 5.7212 C 39.2538 5.6832 39.2808 5.6562 39.3578 5.6902 C 39.5768 5.7872 39.8218 5.9112 40.0858 6.0272 C 40.3488 6.1432 40.6058 6.2422 40.8248 6.3382 C 40.9018 6.3722 40.9008 6.4102 40.8828 6.4492 C 40.8358 6.5582 40.6968 6.4202 40.4818 6.4172 C 40.2528 6.4162 39.9528 6.5372 39.7248 7.0522 L 38.2618 10.3642 C 38.2088 10.4862 38.1618 10.5742 38.1108 10.5512 C 38.0518 10.5252 38.0418 10.4282 38.0178 10.3252 L 36.7788 5.4732 L 36.7658 5.4682 Z" fill="#761638"/>
      </g>
      <g id="Graphic_4">
        <path d="M 42.2856 8.0646 C 42.6126 7.6066 41.9616 7.4776 42.0756 7.3176 C 42.1086 7.2726 42.1516 7.2596 42.2436 7.3256 C 42.5356 7.5346 42.8016 7.7416 43.0296 7.9056 C 43.2596 8.0696 43.5416 8.2536 43.8336 8.4626 C 43.9246 8.5286 43.9276 8.5736 43.8936 8.6196 C 43.7796 8.7796 43.4476 8.2046 43.1206 8.6616 L 41.0006 11.6246 C 40.6736 12.0816 41.3246 12.2106 41.2106 12.3706 C 41.1776 12.4166 41.1346 12.4276 41.0426 12.3626 C 40.7506 12.1546 40.4846 11.9466 40.2566 11.7836 C 40.0276 11.6196 39.7446 11.4336 39.4526 11.2256 C 39.3616 11.1606 39.3586 11.1156 39.3916 11.0696 C 39.5066 10.9096 39.8386 11.4836 40.1656 11.0266 Z" fill="#761638"/>
      </g>
      <g id="Graphic_5">
        <path d="M 46.7222 12.8995 C 46.8642 12.8435 47.0102 12.7535 47.1222 12.6475 C 47.6132 12.1825 47.0792 11.8555 47.2062 11.7345 C 47.2322 11.7105 47.2912 11.7125 47.3452 11.7675 C 47.5092 11.9415 47.6592 12.1195 47.8242 12.2935 C 47.9832 12.4615 48.1532 12.6205 48.3172 12.7945 C 48.4132 12.8955 48.4512 12.9765 48.4062 13.0205 C 48.2572 13.1605 48.0942 12.5685 47.0742 12.9635 L 43.3292 14.4105 C 43.2432 14.4425 43.1632 14.4705 43.1342 14.4395 C 43.1062 14.4085 43.1382 14.3305 43.1742 14.2475 L 44.9902 10.1925 C 45.2492 9.6075 44.8462 9.4375 44.9482 9.3405 C 44.9742 9.3165 45.0242 9.3175 45.0672 9.3635 C 45.3142 9.6235 45.5222 9.8635 45.7432 10.0985 C 45.9612 10.3285 46.1942 10.5525 46.4112 10.7825 C 46.4982 10.8745 46.5072 10.9245 46.4712 10.9585 C 46.3652 11.0595 46.1592 10.5775 45.8882 10.8335 C 45.8172 10.9005 45.7692 10.9845 45.7382 11.0525 L 44.4512 13.7845 Z" fill="#761638"/>
      </g>
      <g id="Graphic_6">
        <path d="M 48.7495 14.4611 C 49.2325 14.1731 48.6875 13.7941 48.8555 13.6931 C 48.9045 13.6641 48.9485 13.6701 49.0065 13.7671 C 49.1895 14.0751 49.3515 14.3721 49.4955 14.6131 C 49.9425 15.3621 50.3735 16.0701 50.8055 16.7791 L 49.8325 17.7701 C 49.7565 17.8481 49.7155 17.8901 49.6965 17.8991 C 49.6665 17.9181 49.6375 17.9111 49.6125 17.8681 C 49.5795 17.8151 49.6865 17.7591 49.9375 17.2891 C 50.2395 16.7241 50.2525 16.1841 49.8205 15.4591 L 49.6255 15.1341 L 47.8875 16.1721 L 47.9775 16.3221 C 48.2285 16.7451 48.7275 16.8641 49.1765 16.6301 C 49.3005 16.5651 49.3415 16.5651 49.3775 16.6241 C 49.3985 16.6611 49.3835 16.7031 49.3295 16.7351 L 47.4815 17.8391 C 47.4275 17.8711 47.3825 17.8641 47.3605 17.8281 C 47.3245 17.7681 47.3445 17.7321 47.4615 17.6531 C 47.9845 17.3091 48.0845 16.8311 47.8325 16.4091 L 47.7425 16.2581 L 46.2205 17.1661 C 45.9425 17.3321 45.8625 17.5271 46.0935 17.9131 C 46.6555 18.8561 47.6285 18.9621 48.3385 18.7921 C 48.4755 18.7611 48.5325 18.7341 48.5645 18.7881 C 48.5905 18.8311 48.5705 18.8671 48.5345 18.8891 C 48.4985 18.9101 48.4185 18.9401 48.3455 18.9691 L 46.8465 19.5031 C 46.3765 18.7031 45.9025 17.8971 45.4015 17.0581 C 45.2575 16.8151 45.0725 16.5331 44.8895 16.2261 C 44.8315 16.1291 44.8475 16.0861 44.8955 16.0581 C 45.0635 15.9561 45.1395 16.6161 45.6215 16.3281 Z" fill="#761638"/>
      </g>
      <g id="Graphic_7">
        <path d="M 50.0903 21.3712 L 50.1673 21.6342 C 50.3923 22.3962 50.8693 22.6222 51.5843 22.4112 C 52.3263 22.1922 52.5283 21.7372 52.3603 21.1632 L 52.2353 20.7382 Z M 49.7733 22.4102 C 50.0633 22.1492 50.0833 21.7982 49.9683 21.4072 L 48.3503 21.8842 C 47.8103 22.0432 48.2443 22.5462 48.0553 22.6002 C 48.0013 22.6172 47.9593 22.6002 47.9283 22.4922 C 47.8263 22.1482 47.7443 21.8202 47.6653 21.5512 C 47.5853 21.2802 47.4773 20.9612 47.3753 20.6172 C 47.3433 20.5102 47.3693 20.4732 47.4233 20.4572 C 47.6113 20.4012 47.5203 21.0592 48.0603 20.8992 L 51.5523 19.8692 C 52.0913 19.7102 51.6583 19.2082 51.8473 19.1522 C 51.9023 19.1362 51.9433 19.1532 51.9743 19.2612 C 52.0763 19.6042 52.1583 19.9332 52.2373 20.2022 C 52.3383 20.5402 52.4363 20.8252 52.5683 21.2702 C 52.9073 22.4252 52.5763 23.1892 51.8883 23.3922 C 51.3213 23.5592 50.7463 23.3482 50.1883 22.0022 L 50.1743 22.0062 C 50.3873 22.7272 50.3273 23.1702 49.8993 23.5822 L 49.0693 24.3772 C 48.6183 24.8102 49.0063 25.1812 48.8183 25.2352 C 48.7773 25.2482 48.7413 25.2502 48.7243 25.1902 C 48.6523 24.9482 48.5943 24.7002 48.5223 24.4572 L 48.3073 23.7292 Z" fill="#761638"/>
      </g>
      <g id="Graphic_8">
        <path d="M 50.6938 25.5963 C 50.7778 25.5923 50.7998 25.6183 50.8018 25.6603 C 50.8058 25.7323 50.7008 25.7383 50.5538 25.7733 C 49.6708 25.9843 48.7958 26.3773 48.8448 27.4043 C 48.8798 28.1193 49.2648 28.5103 49.8048 28.4843 C 51.2238 28.4143 50.3928 25.6393 52.1348 25.5553 C 52.9638 25.5143 53.6148 26.1883 53.6578 27.0573 C 53.6898 27.7173 53.4248 28.0823 53.4348 28.2813 C 53.4468 28.5263 53.6378 28.4103 53.6448 28.5353 C 53.6468 28.5853 53.6278 28.6163 53.5218 28.6273 L 52.2008 28.8193 C 52.0688 28.8383 52.0058 28.8483 51.9698 28.8503 C 51.9218 28.8523 51.8988 28.8323 51.8968 28.7973 C 51.8948 28.7273 52.0418 28.7133 52.3168 28.5863 C 53.0818 28.2403 53.5268 27.8383 53.4878 27.0593 C 53.4648 26.5613 53.2288 26.1783 52.6938 26.2033 C 51.5428 26.2603 52.3198 29.0793 50.4158 29.1723 C 49.4818 29.2173 48.7278 28.4653 48.6758 27.4063 C 48.6428 26.7083 48.9498 26.3643 48.9358 26.0903 C 48.9228 25.8163 48.6858 25.8683 48.6808 25.7493 C 48.6788 25.7153 48.6918 25.6943 48.7408 25.6913 Z" fill="#761638"/>
      </g>
      <g id="Graphic_9">
        <path d="M 52.8672 31.2096 C 53.4252 31.2856 53.2322 30.6486 53.4282 30.6746 C 53.4842 30.6836 53.5132 30.7156 53.5002 30.8266 C 53.4512 31.1826 53.3922 31.5156 53.3552 31.7936 C 53.3182 32.0716 53.2872 32.4086 53.2402 32.7646 C 53.2232 32.8756 53.1852 32.8986 53.1312 32.8926 C 52.9342 32.8646 53.2872 32.3016 52.7292 32.2286 L 49.1192 31.7426 C 48.5612 31.6686 48.7542 32.3046 48.5572 32.2766 C 48.5022 32.2696 48.4712 32.2366 48.4872 32.1256 C 48.5342 31.7716 48.5942 31.4376 48.6312 31.1586 C 48.6672 30.8796 48.6992 30.5436 48.7462 30.1886 C 48.7622 30.0766 48.8012 30.0546 48.8552 30.0626 C 49.0522 30.0866 48.6992 30.6496 49.2572 30.7266 Z" fill="#761638"/>
      </g>
      <g id="Graphic_10">
        <path d="M 52.2754 35.9088 C 52.3594 34.4688 51.3554 34.0548 51.4064 33.9028 C 51.4184 33.8698 51.4454 33.8488 51.4924 33.8658 C 51.5194 33.8738 51.6224 33.9248 51.7204 33.9788 L 52.8674 34.6098 C 52.9614 34.6628 52.9804 34.6918 52.9684 34.7248 C 52.9594 34.7598 52.9284 34.7778 52.8904 34.8038 C 52.8594 34.8288 52.8034 34.8618 52.7734 34.9558 L 51.7694 37.9418 C 51.7384 38.0338 51.7614 38.0968 51.7714 38.1368 C 51.7874 38.1788 51.7964 38.2118 51.7874 38.2448 C 51.7754 38.2778 51.7424 38.2898 51.6344 38.2758 L 50.3404 38.0858 C 50.2284 38.0688 50.1164 38.0478 50.0894 38.0378 C 50.0444 38.0218 50.0324 37.9888 50.0444 37.9558 C 50.0944 37.8028 51.1444 38.0808 51.9474 36.8828 L 48.2544 35.6388 C 47.8294 35.4968 47.6664 35.6728 47.5554 35.9988 C 47.5284 36.0788 47.4964 36.1118 47.4284 36.0908 C 47.3764 36.0708 47.3664 36.0318 47.3914 35.9578 C 47.5194 35.5788 47.6474 35.2428 47.7534 34.9298 C 47.8584 34.6158 47.9594 34.2718 48.0874 33.8918 C 48.1104 33.8188 48.1424 33.7918 48.1954 33.8088 C 48.2614 33.8328 48.2694 33.8808 48.2414 33.9598 C 48.1314 34.2858 48.1554 34.5228 48.5834 34.6668 Z" fill="#761638"/>
      </g>
      <g id="Graphic_11">
        <path d="M 47.5347 40.8365 L 48.0677 41.8155 C 48.2457 42.1425 48.4767 42.3685 48.6387 42.4695 C 49.0377 42.7175 49.2087 42.3125 49.3057 42.3715 C 49.3407 42.3945 49.3477 42.4475 49.2957 42.5295 C 49.1767 42.7215 49.0757 42.8575 48.9267 43.0965 C 48.8107 43.2815 48.7047 43.4815 48.5927 43.6585 C 48.5667 43.7005 48.5277 43.7095 48.4917 43.6885 C 48.3727 43.6125 48.7087 43.4345 48.1127 42.2735 L 47.3777 40.8365 L 45.9387 39.9405 C 45.4617 39.6445 45.3737 40.3015 45.2067 40.1975 C 45.1587 40.1685 45.1437 40.1255 45.2037 40.0295 C 45.3927 39.7275 45.5837 39.4465 45.7327 39.2075 C 45.8817 38.9695 46.0487 38.6765 46.2377 38.3715 C 46.2977 38.2755 46.3427 38.2715 46.3887 38.3015 C 46.5567 38.4035 46.0047 38.7735 46.4817 39.0695 L 47.8057 39.8975 L 50.1537 40.0245 C 50.7847 40.0635 50.8387 39.6315 50.9637 39.7095 C 51.0057 39.7345 51.0067 39.7855 50.9657 39.8535 C 50.7837 40.1455 50.5997 40.4105 50.4257 40.6915 C 50.2507 40.9735 50.0917 41.2545 49.9167 41.5345 C 49.8607 41.6235 49.8167 41.6545 49.7747 41.6295 C 49.6497 41.5495 50.0277 41.2645 49.6937 41.0555 C 49.5927 40.9915 49.4737 40.9695 49.2927 40.9555 Z" fill="#761638"/>
      </g>
      <g id="Graphic_12">
        <path d="M 10.6421 42.3092 C 10.5721 42.3562 10.5381 42.3442 10.5151 42.3092 C 10.4761 42.2492 10.5641 42.1922 10.6701 42.0852 C 11.3201 41.4512 11.8671 40.6632 11.2961 39.8072 C 10.8991 39.2112 10.3681 39.0762 9.9171 39.3752 C 8.7361 40.1642 10.8771 42.1182 9.4271 43.0852 C 8.7381 43.5452 7.8311 43.3052 7.3481 42.5802 C 6.9811 42.0322 7.0201 41.5812 6.9101 41.4182 C 6.7741 41.2132 6.6681 41.4122 6.5981 41.3052 C 6.5711 41.2642 6.5731 41.2292 6.6561 41.1642 L 7.6911 40.3232 C 7.7941 40.2372 7.8431 40.1962 7.8721 40.1762 C 7.9131 40.1492 7.9431 40.1542 7.9621 40.1822 C 8.0011 40.2422 7.8821 40.3302 7.7101 40.5802 C 7.2341 41.2702 7.0591 41.8422 7.4921 42.4932 C 7.7691 42.9092 8.1691 43.1152 8.6141 42.8172 C 9.5731 42.1762 7.4551 40.1582 9.0391 39.1002 C 9.8181 38.5802 10.8521 38.8362 11.4411 39.7192 C 11.8281 40.2992 11.7421 40.7532 11.8951 40.9812 C 12.0471 41.2092 12.2221 41.0412 12.2881 41.1412 C 12.3081 41.1702 12.3081 41.1972 12.2671 41.2232 Z" fill="#761638"/>
      </g>
      <g id="Graphic_13">
        <path d="M 5.6118 38.149 C 5.0788 38.327 5.5318 38.815 5.3448 38.878 C 5.2918 38.895 5.2498 38.878 5.2138 38.772 C 5.0988 38.432 5.0048 38.108 4.9148 37.841 C 4.8248 37.575 4.7048 37.259 4.5898 36.92 C 4.5538 36.813 4.5788 36.776 4.6318 36.757 C 4.8188 36.694 4.7518 37.356 5.2838 37.175 L 6.8168 36.661 L 6.2288 34.915 L 4.6968 35.429 C 4.1638 35.61 4.6158 36.094 4.4298 36.157 C 4.3768 36.174 4.3348 36.161 4.2988 36.053 C 4.1838 35.713 4.0898 35.388 3.9998 35.124 C 3.9098 34.856 3.7898 34.541 3.6748 34.2 C 3.6388 34.093 3.6638 34.055 3.7168 34.039 C 3.9038 33.975 3.8368 34.635 4.3698 34.458 L 7.8218 33.295 C 8.3548 33.116 7.9018 32.629 8.0888 32.567 C 8.1418 32.548 8.1838 32.565 8.2198 32.67 C 8.3348 33.01 8.4278 33.337 8.5188 33.602 C 8.6078 33.87 8.7288 34.184 8.8428 34.524 C 8.8798 34.63 8.8548 34.67 8.8008 34.686 C 8.6148 34.75 8.6818 34.088 8.1488 34.268 L 6.3898 34.86 L 6.9768 36.606 L 8.7368 36.014 C 9.2688 35.836 8.8168 35.349 9.0038 35.287 C 9.0568 35.268 9.0988 35.284 9.1348 35.39 C 9.2498 35.731 9.3428 36.054 9.4338 36.321 C 9.5228 36.587 9.6438 36.903 9.7578 37.243 C 9.7948 37.349 9.7698 37.387 9.7158 37.405 C 9.5298 37.468 9.5968 36.807 9.0638 36.987 Z" fill="#761638"/>
      </g>
      <g id="Graphic_14">
        <path d="M 3.814 31.2135 C 3.252 31.2395 3.555 31.8305 3.359 31.8405 C 3.302 31.8445 3.266 31.8175 3.26 31.7055 C 3.244 31.3465 3.241 31.0085 3.227 30.7285 C 3.184 29.8575 3.137 29.0275 3.089 28.1995 L 4.414 27.7835 C 4.518 27.7505 4.573 27.7345 4.594 27.7335 C 4.629 27.7315 4.652 27.7505 4.654 27.7995 C 4.658 27.8625 4.538 27.8615 4.094 28.1575 C 3.562 28.5155 3.297 28.9845 3.337 29.8275 L 3.356 30.2075 L 5.379 30.1095 L 5.371 29.9345 C 5.347 29.4425 4.963 29.1025 4.458 29.0985 C 4.316 29.0985 4.28 29.0775 4.276 29.0085 C 4.274 28.9655 4.308 28.9375 4.372 28.9345 L 6.52 28.8275 C 6.584 28.8245 6.62 28.8515 6.623 28.8945 C 6.626 28.9635 6.591 28.9865 6.452 29.0005 C 5.828 29.0605 5.515 29.4345 5.539 29.9245 L 5.547 30.1015 L 7.318 30.0155 C 7.64 29.9985 7.803 29.8635 7.781 29.4145 C 7.727 28.3185 6.919 27.7675 6.213 27.5825 C 6.078 27.5475 6.014 27.5435 6.011 27.4815 C 6.008 27.4325 6.043 27.4085 6.085 27.4055 C 6.127 27.4035 6.212 27.4145 6.29 27.4245 L 7.864 27.6565 C 7.902 28.5845 7.941 29.5205 7.989 30.4965 C 8.002 30.7765 8.033 31.1125 8.05 31.4715 C 8.056 31.5845 8.022 31.6125 7.965 31.6155 C 7.769 31.6255 8.014 31.0085 7.452 31.0355 Z" fill="#761638"/>
      </g>
      <g id="Graphic_15">
        <path d="M 6.9888 25.3678 C 7.5388 25.4888 7.8138 25.3188 7.9478 25.1328 C 8.0718 24.9578 8.0438 24.7638 8.1598 24.7898 C 8.2008 24.7998 8.2318 24.8208 8.2138 24.9028 C 8.1628 25.1368 8.0908 25.4008 8.0288 25.6818 C 7.9678 25.9648 7.9228 26.2348 7.8708 26.4698 C 7.8528 26.5518 7.8148 26.5558 7.7738 26.5488 C 7.6568 26.5218 7.7648 26.3578 7.7248 26.1478 C 7.6808 25.9238 7.5028 25.6528 6.9528 25.5338 L 3.9508 24.8758 C 3.5718 25.0298 3.4408 25.2018 3.3648 25.4168 C 3.3268 25.5218 3.3158 25.5708 3.2408 25.5548 C 3.1858 25.5418 3.1718 25.5108 3.1838 25.4558 C 3.2348 25.2218 3.3038 24.9708 3.3598 24.7178 L 3.5278 23.9458 L 7.1578 22.1658 L 7.1608 22.1528 L 5.1288 21.7058 C 4.5788 21.5868 4.3028 21.7568 4.1698 21.9428 C 4.0448 22.1178 4.0738 22.3098 3.9578 22.2848 C 3.9168 22.2768 3.8848 22.2558 3.9028 22.1728 C 3.9548 21.9378 4.0268 21.6748 4.0888 21.3908 C 4.1498 21.1108 4.1948 20.8408 4.2468 20.6058 C 4.2638 20.5228 4.3008 20.5168 4.3428 20.5268 C 4.4598 20.5528 4.3518 20.7168 4.3918 20.9268 C 4.4358 21.1518 4.6148 21.4218 5.1648 21.5418 L 8.7018 22.3168 C 8.8318 22.3468 8.9258 22.3738 8.9148 22.4298 C 8.9008 22.4908 8.8078 22.5198 8.7128 22.5628 L 4.2038 24.7428 L 4.2008 24.7578 Z" fill="#761638"/>
      </g>
      <g id="Graphic_16">
        <path d="M 9.6079 19.8986 C 9.9489 19.1726 9.8199 18.5696 9.5539 18.1106 C 9.2849 17.6426 8.8989 17.4686 8.9509 17.3606 C 8.9619 17.3356 8.9969 17.3126 9.0469 17.3356 C 9.0859 17.3546 9.1709 17.4186 9.2809 17.5006 L 10.5019 18.3916 C 10.2559 18.8986 10.0039 19.4176 9.7589 19.9386 C 9.5149 20.4606 9.2829 20.9896 9.0379 21.5106 C 9.0129 21.5616 8.9699 21.5726 8.9449 21.5606 C 8.9129 21.5456 8.8799 21.4996 8.8249 21.4196 L 5.9609 17.1766 L 5.7809 17.5596 C 5.4499 18.2656 5.4989 18.8386 5.8509 19.3776 C 6.1689 19.8616 6.2689 19.8466 6.2299 19.9286 C 6.2119 19.9676 6.1869 19.9706 6.1549 19.9566 C 6.1359 19.9476 6.0909 19.9116 6.0069 19.8406 L 4.9419 18.9526 C 5.1569 18.4936 5.3869 18.0346 5.6089 17.5636 C 5.8299 17.0916 6.0349 16.6226 6.2619 16.1376 C 6.2999 16.0556 6.3289 16.0446 6.3609 16.0596 C 6.3919 16.0756 6.4409 16.1526 6.5059 16.2456 L 9.3629 20.4206 Z" fill="#761638"/>
      </g>
      <g id="Graphic_17">
        <path d="M 7.8989 14.5568 C 7.4599 14.2038 7.2949 14.8478 7.1409 14.7248 C 7.0979 14.6898 7.0879 14.6458 7.1589 14.5568 C 7.3829 14.2788 7.6049 14.0238 7.7809 13.8038 C 7.9569 13.5848 8.1569 13.3128 8.3809 13.0338 C 8.4519 12.9458 8.4969 12.9458 8.5409 12.9798 C 8.6939 13.1028 8.1019 13.4038 8.5409 13.7558 L 9.8019 14.7678 L 10.9549 13.3298 L 9.6929 12.3188 C 9.2539 11.9668 9.0899 12.6098 8.9369 12.4868 C 8.8929 12.4518 8.8819 12.4078 8.9529 12.3198 C 9.1769 12.0398 9.3999 11.7858 9.5759 11.5658 C 9.7519 11.3468 9.9519 11.0748 10.1759 10.7948 C 10.2469 10.7068 10.2919 10.7068 10.3359 10.7428 C 10.4889 10.8658 9.8969 11.1658 10.3359 11.5178 L 13.1769 13.7968 C 13.6159 14.1488 13.7799 13.5048 13.9339 13.6278 C 13.9779 13.6628 13.9879 13.7068 13.9179 13.7948 C 13.6929 14.0758 13.4699 14.3288 13.2949 14.5488 C 13.1189 14.7678 12.9189 15.0398 12.6949 15.3208 C 12.6239 15.4078 12.5789 15.4078 12.5359 15.3718 C 12.3809 15.2488 12.9729 14.9498 12.5349 14.5978 L 11.0869 13.4358 L 9.9339 14.8728 L 11.3819 16.0348 C 11.8209 16.3868 11.9859 15.7438 12.1389 15.8668 C 12.1829 15.9018 12.1929 15.9458 12.1229 16.0328 C 11.8979 16.3128 11.6749 16.5678 11.4999 16.7868 C 11.3239 17.0068 11.1249 17.2788 10.8989 17.5578 C 10.8289 17.6458 10.7849 17.6458 10.7399 17.6108 C 10.5869 17.4878 11.1789 17.1878 10.7399 16.8348 Z" fill="#761638"/>
      </g>
      <g id="Graphic_18">
        <path d="M 12.7573 9.2989 C 12.4303 8.8409 12.0983 9.4159 11.9833 9.2559 C 11.9503 9.2099 11.9523 9.1649 12.0443 9.0989 C 12.3363 8.8909 12.6183 8.7059 12.8473 8.5429 C 13.5563 8.0349 14.2283 7.5469 14.8983 7.0589 L 15.9653 7.9459 C 16.0493 8.0159 16.0943 8.0529 16.1063 8.0699 C 16.1263 8.0989 16.1213 8.1279 16.0813 8.1559 C 16.0293 8.1939 15.9663 8.0919 15.4783 7.8799 C 14.8903 7.6259 14.3503 7.6569 13.6633 8.1479 L 13.3553 8.3689 L 14.5323 10.0169 L 14.6763 9.9139 C 15.0763 9.6279 15.1553 9.1219 14.8833 8.6949 C 14.8073 8.5749 14.8043 8.5349 14.8613 8.4929 C 14.8963 8.4689 14.9393 8.4819 14.9763 8.5319 L 16.2283 10.2829 C 16.2643 10.3339 16.2623 10.3789 16.2283 10.4039 C 16.1703 10.4449 16.1333 10.4289 16.0453 10.3189 C 15.6583 9.8249 15.1743 9.7659 14.7743 10.0519 L 14.6313 10.1539 L 15.6623 11.5949 C 15.8503 11.8589 16.0513 11.9219 16.4173 11.6599 C 17.3103 11.0219 17.3363 10.0439 17.1083 9.3509 C 17.0653 9.2169 17.0333 9.1619 17.0853 9.1249 C 17.1253 9.0959 17.1633 9.1119 17.1873 9.1469 C 17.2123 9.1809 17.2503 9.2579 17.2833 9.3289 L 17.9403 10.7779 C 17.1813 11.3129 16.4163 11.8519 15.6213 12.4199 C 15.3933 12.5839 15.1263 12.7909 14.8343 12.9999 C 14.7423 13.0659 14.6993 13.0529 14.6663 13.0079 C 14.5523 12.8479 15.2033 12.7189 14.8763 12.2609 Z" fill="#761638"/>
      </g>
      <g id="Graphic_19">
        <path d="M 19.2661 8.8654 C 19.4651 9.3924 19.7571 9.5304 19.9871 9.5414 C 20.2011 9.5504 20.3471 9.4204 20.3891 9.5314 C 20.4041 9.5714 20.4031 9.6094 20.3251 9.6384 C 20.1001 9.7224 19.8391 9.8064 19.5691 9.9084 C 19.2991 10.0104 19.0481 10.1204 18.8241 10.2044 C 18.7451 10.2344 18.7201 10.2064 18.7041 10.1674 C 18.6621 10.0544 18.8591 10.0564 19.0131 9.9084 C 19.1781 9.7484 19.3061 9.4514 19.1081 8.9264 L 18.0241 6.0504 C 17.6881 5.8164 17.4711 5.8014 17.2501 5.8534 C 17.1401 5.8804 17.0941 5.8974 17.0671 5.8254 C 17.0471 5.7724 17.0661 5.7424 17.1191 5.7224 C 17.3421 5.6384 17.5901 5.5594 17.8341 5.4684 L 18.5711 5.1904 L 22.0421 7.2614 L 22.0561 7.2574 L 21.3221 5.3094 C 21.1221 4.7834 20.8301 4.6454 20.6011 4.6354 C 20.3871 4.6254 20.2411 4.7554 20.1991 4.6434 C 20.1841 4.6044 20.1851 4.5664 20.2631 4.5364 C 20.4871 4.4524 20.7481 4.3684 21.0181 4.2664 C 21.2881 4.1654 21.5391 4.0544 21.7631 3.9704 C 21.8421 3.9404 21.8681 3.9694 21.8821 4.0084 C 21.9251 4.1204 21.7291 4.1184 21.5751 4.2674 C 21.4101 4.4274 21.2811 4.7234 21.4801 5.2504 L 22.7571 8.6384 C 22.8041 8.7634 22.8321 8.8574 22.7801 8.8784 C 22.7211 8.9004 22.6451 8.8394 22.5561 8.7824 L 18.2721 6.1894 L 18.2581 6.1944 Z" fill="#761638"/>
      </g>
      <g id="Graphic_20">
        <path d="M 16.4556 47.8932 C 16.4556 48.2582 16.1606 48.5532 15.7966 48.5532 C 15.4326 48.5532 15.1376 48.2582 15.1376 47.8932 C 15.1376 47.5312 15.4326 47.2352 15.7966 47.2352 C 16.1606 47.2352 16.4556 47.5312 16.4556 47.8932 Z" fill="#761638"/>
      </g>
      <g id="Graphic_21">
        <path d="M 41.5063 47.8932 C 41.5063 48.2582 41.2103 48.5532 40.8463 48.5532 C 40.4833 48.5532 40.1873 48.2582 40.1873 47.8932 C 40.1873 47.5312 40.4833 47.2352 40.8463 47.2352 C 41.2103 47.2352 41.5063 47.5312 41.5063 47.8932 Z" fill="#761638"/>
      </g>
      <g id="Graphic_22">
        <path d="M 28.3491 1.4171 C 13.4461 1.4171 1.3211 13.5421 1.3211 28.4451 C 1.3211 43.3491 13.4461 55.4731 28.3491 55.4731 C 43.2521 55.4731 55.3761 43.3491 55.3761 28.4451 C 55.3761 13.5421 43.2521 1.4171 28.3491 1.4171 M 28.3491 56.7921 C 24.5231 56.7921 20.8111 56.0421 17.3151 54.5631 C 13.9401 53.1361 10.9081 51.0921 8.3051 48.4891 C 5.7031 45.8861 3.6581 42.8551 2.2311 39.4801 C .7521 35.9831 .0021 32.2711 .0021 28.4451 C .0021 24.6181 .7521 20.9061 2.2311 17.4111 C 3.6581 14.0351 5.7031 11.0041 8.3051 8.4011 C 10.9081 5.7981 13.9401 3.7541 17.3151 2.3261 C 20.8111 .8491 24.5231 .0991 28.3491 .0991 C 32.1751 .0991 35.8871 .8491 39.3821 2.3261 C 42.7581 3.7541 45.7891 5.7981 48.3931 8.4011 C 50.9951 11.0041 53.0391 14.0351 54.4671 17.4111 C 55.9461 20.9061 56.6961 24.6181 56.6961 28.4451 C 56.6961 32.2711 55.9461 35.9831 54.4671 39.4801 C 53.0391 42.8551 50.9951 45.8861 48.3931 48.4891 C 45.7891 51.0921 42.7581 53.1361 39.3821 54.5631 C 35.8871 56.0421 32.1751 56.7921 28.3491 56.7921" fill="#761638"/>
      </g>
      <g id="Graphic_23">
        <path d="M 20.937 51.8073 C 20.843 52.0863 20.967 52.2903 21.34 52.4383 C 21.694 52.5783 21.767 52.6043 21.734 52.7033 C 21.72 52.7443 21.673 52.7723 21.6 52.7473 C 21.147 52.5963 20.689 52.4363 20.26 52.2993 C 19.805 52.1543 19.342 52.0063 18.889 51.8543 C 18.816 51.8283 18.796 51.7793 18.809 51.7393 C 18.843 51.6373 18.916 51.6623 19.283 51.7643 C 19.669 51.8703 19.892 51.7833 19.986 51.5013 L 21.029 48.3893 C 21.081 48.2363 21.051 48.1883 20.931 48.1493 L 20.025 47.8443 C 19.964 47.8253 19.94 47.7863 19.956 47.7413 C 19.99 47.6393 20.107 47.7323 20.705 47.8503 C 21.601 48.0323 22.037 47.7913 22.17 47.8363 C 22.231 47.8573 22.246 47.9003 22.208 48.0123 Z" fill="#761638"/>
      </g>
      <g id="Graphic_24">
        <path d="M 25.5874 51.3248 C 25.9224 51.3598 26.3164 51.1778 26.4104 51.0298 C 26.4444 50.9768 26.5164 50.7018 26.5474 50.4158 C 26.6834 49.1508 26.3214 48.7588 25.8044 48.7038 C 25.4054 48.6608 24.9754 48.8538 24.8594 49.9308 C 24.7574 50.8888 25.1334 51.2758 25.5874 51.3248 M 25.8454 48.5808 C 26.9994 48.7038 27.6034 49.6738 27.4784 50.8418 C 27.2614 52.8618 24.6274 53.3578 24.3124 53.3228 C 24.2774 53.3188 24.2734 53.2988 24.2764 53.2618 C 24.2854 53.1788 25.7664 52.9638 26.3424 51.2778 C 26.0504 51.4248 25.7514 51.5118 25.3734 51.4708 C 24.2334 51.3488 23.8154 50.5688 23.8904 49.8698 C 23.9804 49.0318 24.6634 48.4538 25.8454 48.5808" fill="#761638"/>
      </g>
      <g id="Graphic_25">
        <path d="M 30.4839 48.7487 C 29.9939 48.7917 29.6849 49.1427 29.7279 49.6407 C 29.7899 50.3537 30.8769 50.5157 31.3799 50.6327 C 31.5329 50.4357 31.6419 50.2287 31.6009 49.7527 C 31.5389 49.0317 31.0999 48.6947 30.4839 48.7487 M 30.6159 53.3817 C 31.3159 53.3187 31.6419 52.8487 31.5959 52.3147 C 31.5639 51.9367 31.3829 51.6427 30.6099 51.4347 C 29.8799 51.2347 29.8179 51.1777 29.7199 51.1867 C 29.5939 51.1957 29.2749 51.5917 29.3279 52.1927 C 29.3919 52.9497 29.8589 53.4457 30.6159 53.3817 M 29.5509 51.1077 C 29.1119 50.8367 28.9129 50.4927 28.8799 50.1297 C 28.8149 49.3717 29.4919 48.7077 30.4649 48.6237 C 31.2709 48.5547 31.9169 48.9927 31.9689 49.6017 C 32.0049 50.0157 31.8129 50.4187 31.4979 50.6797 C 32.0459 50.8147 32.3969 51.2937 32.4489 51.8897 C 32.5179 52.6937 31.7749 53.4087 30.6269 53.5077 C 29.6379 53.5937 28.9359 53.0607 28.8739 52.3387 C 28.8389 51.9387 29.0499 51.4407 29.5509 51.1077" fill="#761638"/>
      </g>
      <g id="Graphic_26">
        <path d="M 36.0708 49.3658 C 36.5878 49.5358 37.0178 49.8068 37.1878 50.3508 C 37.4708 51.2588 36.8158 52.2268 35.8368 52.5338 C 34.8838 52.8308 34.1278 52.5808 33.9788 52.1038 C 33.8968 51.8438 34.0088 51.5418 34.2848 51.4558 C 34.6278 51.3488 34.8378 51.5058 34.9938 51.9558 C 35.1538 52.4238 35.4638 52.5158 35.7848 52.4168 C 36.3288 52.2468 36.5988 51.7208 36.3818 51.0218 C 36.2058 50.4578 35.7728 50.1588 35.3218 50.1528 C 35.0258 50.1488 34.7738 50.3088 34.7428 50.2098 C 34.6958 50.0608 35.0048 50.1278 35.2858 49.8458 C 35.4758 49.6548 35.5088 49.3128 35.3938 48.9438 C 35.2388 48.4478 34.8158 48.2698 34.2708 48.4398 C 33.5528 48.6648 33.6468 49.2238 33.5188 49.2638 C 33.4858 49.2758 33.4578 49.2558 33.4468 49.2198 C 33.3918 49.0468 33.6038 48.1178 34.5298 47.8288 C 35.1948 47.6218 35.9658 47.8028 36.1908 48.5258 C 36.2878 48.8348 36.2228 49.0768 36.0708 49.3658 Z" fill="#761638"/>
      </g>
      <g id="Graphic_27">
        <path d="M 23.4956 30.8463 C 23.5516 30.8833 23.6016 30.8983 23.6966 30.8953 C 23.8956 30.8893 24.0166 30.7743 24.0666 30.7503 C 24.0866 30.7423 24.1416 30.7083 24.1416 30.6983 C 24.1376 30.6133 23.8516 30.5013 23.7076 30.4943 C 23.5336 30.4883 23.2586 30.6453 23.2586 30.6883 C 23.2586 30.7423 23.4386 30.8223 23.4956 30.8463 Z" fill="#761638"/>
      </g>
      <g id="Graphic_28">
        <path d="M 25.1841 34.3385 C 25.2651 33.9245 25.1201 34.0345 24.2511 34.0045 C 23.8561 34.0045 22.4751 33.9715 22.0791 34.0265 C 21.8981 34.0495 21.8751 34.1975 21.8751 34.2875 C 21.8751 34.5865 21.8001 34.5535 23.2851 34.5555 L 23.8641 34.5105 C 24.7891 34.4595 25.0251 34.5685 25.1841 34.3385 Z" fill="#761638"/>
      </g>
      <g id="Graphic_29">
        <path d="M 37.3472 28.1705 C 36.8652 28.3425 36.9082 28.1085 36.8882 27.4305 C 36.8682 26.9885 36.9272 25.6075 36.3222 25.4085 C 35.8062 25.1605 35.3202 25.1445 35.2092 25.3085 C 35.1262 25.4305 35.1602 27.8585 35.1602 27.8585 C 35.1712 28.4335 34.9172 28.3425 34.6592 28.3055 C 34.1732 28.1765 34.2272 27.8965 34.2352 27.4415 C 34.2432 26.9865 34.2432 25.3515 34.1622 25.2625 C 34.0902 25.1845 33.1572 25.1295 33.0022 26.1075 C 32.8542 27.0355 32.7502 27.6555 32.7172 27.8545 C 32.6962 27.9755 32.6712 28.1315 32.5802 28.1605 C 32.4072 28.2175 32.0632 28.2935 31.9992 28.1995 C 31.9012 27.8495 31.9932 27.3265 32.0522 26.7405 C 32.1602 26.1295 32.3072 25.6785 32.4932 25.1405 C 32.5602 24.7855 33.5162 24.5475 34.0582 24.3165 C 34.3792 24.2315 34.2872 23.7335 34.1842 23.7195 C 34.0152 23.6785 33.3792 23.7725 32.9852 23.8145 C 32.7032 23.8115 32.4552 24.0305 32.2412 23.5515 C 32.1322 23.3085 32.0852 23.1015 32.7462 23.0665 L 33.6042 22.9945 C 34.2162 22.9765 34.2562 22.8715 34.2562 22.8715 C 34.2582 22.7135 34.2872 22.4175 34.4332 22.1765 C 34.4792 22.1025 34.7302 22.1355 34.8822 22.1495 C 35.2082 22.2425 35.0842 22.2565 35.1432 22.6635 C 35.1612 22.8495 35.0952 22.8995 36.1712 22.8715 C 36.9292 22.8485 37.4892 22.7595 37.4632 23.0665 C 37.4702 23.2155 37.4732 23.5245 37.3972 23.6035 C 37.2872 23.7175 37.0732 23.6685 36.7162 23.6885 C 36.1872 23.6915 35.3262 23.7215 35.2002 23.7365 C 35.1192 23.7745 35.1292 23.9325 35.1662 24.0925 C 35.2152 24.2075 35.1372 24.2305 35.6372 24.3425 C 37.2952 24.8275 37.2772 24.7285 37.5372 25.8035 C 37.6952 26.7095 37.6752 27.2115 37.6852 27.4865 C 37.6732 27.7975 37.7962 28.0125 37.3472 28.1705 M 37.5632 32.2345 C 37.2392 33.4415 36.9592 33.3015 36.7292 34.6375 C 36.7312 35.1485 36.9992 36.2725 37.1132 36.6845 C 37.1882 37.0735 37.5662 37.8445 37.3762 37.9015 C 37.1872 37.9595 36.7642 37.8595 36.6172 37.7465 C 36.3972 37.5775 36.2172 36.7955 36.1232 36.5235 C 35.9482 35.7585 35.6552 34.4285 36.2102 33.3505 C 36.3692 33.0045 36.6282 32.5495 36.7812 31.6745 C 36.7862 30.4875 36.7162 30.3445 36.5442 29.7955 C 36.4142 29.4715 36.2402 29.2215 36.5352 29.2055 C 37.4162 29.2055 37.3052 29.4715 37.5572 30.0605 C 37.7132 30.7545 37.7322 31.0265 37.5632 32.2345 M 35.2822 36.6975 C 35.4592 37.3205 35.8662 37.8635 35.6012 37.9335 C 35.3932 37.9835 35.0222 37.9575 34.9012 37.8255 C 34.6492 37.5515 34.4212 37.0475 34.2642 36.2325 C 34.1472 35.3585 34.0662 34.8145 34.1542 34.0175 C 34.4262 32.8325 35.0262 32.4655 35.1222 31.4795 C 35.1812 30.8445 35.1112 30.6515 35.0162 30.3775 C 34.8532 29.9045 34.2972 29.1785 34.9402 29.1785 C 35.3352 29.1785 35.3422 29.2325 35.4992 29.3545 C 35.7482 29.5455 36.0262 30.3935 36.0702 30.8815 C 36.1312 31.6085 35.7952 32.3365 35.5492 32.9695 C 35.2712 33.6855 34.9912 34.0865 34.9932 34.7855 C 35.0342 35.2735 35.0812 35.8995 35.2822 36.6975 M 33.8472 37.9985 C 33.6072 38.0555 33.5102 38.0535 33.1962 37.9985 C 32.9782 37.9615 32.8692 37.7095 32.6862 37.1395 C 32.5992 36.8275 32.5202 36.5255 32.3722 35.7975 C 32.2872 34.9815 32.1842 34.3205 32.3522 33.8995 C 32.4332 33.5965 32.6122 33.1515 32.7902 32.8015 C 32.9342 32.4575 33.0652 32.2055 33.2252 31.5985 C 33.3312 31.0125 33.3292 30.9575 33.2232 30.4555 C 33.1902 30.2565 33.0502 30.0005 32.9502 29.7305 C 32.7872 29.3755 32.6872 29.1995 33.0922 29.1495 C 33.6802 29.1075 33.6352 29.1725 33.9022 29.5645 C 34.1822 30.2075 34.1842 30.4515 34.1982 30.6595 C 34.2592 31.1475 34.2372 31.6965 33.7742 32.7195 C 33.3262 33.6035 33.1452 33.9655 33.2052 34.8075 C 33.2752 35.7425 33.4842 36.7485 33.6102 37.0985 C 33.7062 37.3625 34.0352 37.9535 33.8472 37.9985 M 31.7932 33.6575 C 31.6362 33.8125 31.0712 33.8855 30.9502 34.0665 C 30.8282 34.2445 30.8682 35.5515 30.9522 35.6405 C 31.0512 35.7545 31.3202 35.6805 31.7232 35.6435 C 32.0282 35.6355 32.1352 36.5865 31.9022 36.6145 C 31.6612 36.6595 30.7932 36.7525 30.3342 36.8015 C 29.8422 36.8605 29.5602 36.8985 29.0902 36.8955 C 28.6522 36.8915 28.6592 36.6605 28.6162 36.3305 C 28.6152 35.9535 28.5742 35.8205 28.9352 35.8665 C 29.2882 35.8795 29.5292 35.9245 29.8422 35.6525 C 30.0762 35.4635 29.9402 34.9715 29.9732 34.6035 C 29.9612 34.2715 30.0522 33.9675 29.5812 34.0865 C 28.9202 34.2405 28.8822 34.3465 28.8852 33.2215 C 28.8872 32.8195 28.8772 32.4385 28.9022 32.1685 C 28.9402 31.6295 28.8212 31.3535 29.5022 31.2115 C 29.7952 31.1495 29.6382 32.0395 29.6352 32.4555 C 29.6322 32.8525 29.5812 33.2715 29.8032 33.2715 C 30.3622 33.3115 30.0382 32.0575 30.0782 31.0025 C 30.1012 30.3035 29.9552 29.9865 30.5062 29.8855 C 30.9942 29.8165 30.8812 29.9965 30.9052 30.5735 C 30.9112 31.1215 30.8802 33.0155 31.1162 32.9965 C 31.5812 32.9635 31.4942 31.3635 31.4632 31.0845 C 31.4512 30.6535 31.3762 30.4695 31.8122 30.4335 C 32.1492 30.4165 32.1572 30.3925 32.2222 30.7745 C 32.2852 31.1765 32.2942 31.5515 32.2952 31.8555 C 32.2632 32.2465 32.2452 32.4495 32.1662 32.8695 C 32.1042 33.3325 31.9512 33.5045 31.7932 33.6575 M 28.0192 16.5475 L 24.0642 16.5475 C 24.0642 16.0015 24.5072 15.5595 25.0532 15.5595 L 27.5252 15.5595 C 27.7982 15.5595 28.0192 15.7795 28.0192 16.0525 Z M 27.5202 28.6135 C 27.2502 28.7545 26.2352 27.3665 25.5262 26.4635 C 25.2792 26.1495 24.3772 25.3735 23.5752 25.3285 C 22.3692 25.2605 20.7082 27.3975 20.2912 28.1295 C 20.0822 28.4525 19.8432 28.7775 19.4872 28.6135 C 19.1602 28.4055 19.1702 28.4125 19.3582 27.8685 C 19.7012 27.0595 21.1962 25.4185 21.8362 24.9615 C 22.5182 24.3245 22.6842 24.2415 22.9022 23.4845 C 23.0102 22.1065 22.9712 21.7785 22.5712 21.7095 C 22.1742 21.6655 20.3902 21.4065 20.3182 22.5125 C 20.2562 23.4495 20.2602 23.8635 20.2562 24.2425 C 20.2592 24.8035 20.2122 24.7135 19.6582 24.7155 C 19.2952 24.7155 19.4842 22.8325 19.4842 21.5645 C 19.6792 20.7905 20.1482 20.9345 20.9112 20.8735 C 21.3072 20.9155 21.8272 20.8695 22.1062 20.8695 C 22.7452 20.8695 22.8942 20.5445 22.9342 20.0315 C 22.9752 19.5005 23.0312 19.4805 23.4792 19.4075 C 23.8792 19.3435 23.8402 19.6515 23.9222 20.0555 C 24.0652 20.6805 23.8542 20.7295 24.7542 20.7735 C 25.5242 20.7735 26.1102 20.7895 26.4412 20.8165 C 27.1892 20.8905 27.5972 20.8165 27.6472 21.9655 C 27.6722 22.9325 27.9192 23.8445 27.6232 24.2005 C 27.4982 24.3525 27.1552 24.5305 26.9072 24.4855 C 26.5952 24.3165 27.2502 22.1835 26.4422 21.8185 C 25.9612 21.6035 24.6222 21.6025 24.2332 21.7845 C 23.8632 21.9605 24.0142 22.7225 23.9782 23.2685 C 23.9782 23.6985 23.9762 24.1525 24.8582 24.7285 C 25.7472 25.3835 26.5552 26.2115 27.3712 27.1865 C 27.8582 27.7005 28.2882 28.3755 27.5202 28.6135 M 27.6512 31.9815 C 27.3732 32.0375 25.7822 32.0805 25.7512 32.0715 C 25.6022 32.0575 25.5812 32.0775 25.5872 31.8615 C 25.5802 31.5515 25.6042 31.5215 26.1382 31.5295 C 26.6582 31.5435 27.0662 31.5845 27.0662 31.2735 C 27.0662 31.0375 27.0042 30.9885 26.1592 31.0205 C 25.6722 31.0335 25.6942 31.0225 25.6732 30.9225 C 25.6142 30.6235 25.5432 30.4505 25.9672 30.4285 C 26.5582 30.3755 27.0492 30.4225 27.0802 30.2795 C 27.1372 30.0245 27.0762 29.9355 26.6112 29.9655 C 25.6262 30.0305 25.5762 30.1075 25.5652 29.7935 C 25.5652 29.4905 25.4392 29.4055 26.2202 29.3595 C 27.0172 29.3465 27.6592 29.2485 27.7142 29.6075 C 27.8512 30.0305 27.8582 30.5885 27.8802 31.4105 C 27.8962 31.9575 27.8652 31.9425 27.6512 31.9815 M 22.2932 29.6625 C 22.2262 29.6275 22.4592 29.2815 22.5952 29.2545 C 22.7602 29.2795 23.2142 29.5495 23.3552 29.5995 C 23.3972 29.6125 23.5372 29.6745 23.7152 29.7695 C 23.8022 29.7295 23.8682 29.6955 23.9042 29.6745 C 24.0502 29.5845 24.7332 29.2025 24.9182 29.2115 C 24.9722 29.2485 25.2312 29.6435 25.0532 29.7485 C 24.8262 29.8965 24.5732 30.0805 24.4042 30.1495 C 24.6052 30.2585 24.7652 30.3445 24.8032 30.3645 C 25.0872 30.5065 25.1462 30.5675 25.1152 30.8575 C 25.0822 30.9125 24.9592 31.0125 24.8942 31.0415 C 24.7442 31.1075 24.6182 31.1935 24.4602 31.2665 C 24.5832 31.3225 24.7082 31.3835 24.8262 31.4435 C 25.3522 31.7465 25.3252 31.6745 25.1662 31.9445 C 24.9652 32.2275 24.6792 32.0755 24.5482 32.0215 C 24.4822 31.9885 24.0682 31.8245 23.6952 31.6195 C 23.4622 31.7545 23.1712 31.9065 22.9002 32.0245 C 22.5342 32.1915 22.4732 32.2055 22.3452 32.0245 C 22.1242 31.7025 22.2592 31.7175 22.6342 31.4925 C 22.6712 31.4745 22.8552 31.3855 22.9892 31.2915 C 22.8262 31.2075 22.6412 31.1395 22.4452 31.0155 C 22.3942 30.9875 22.2442 30.9015 22.2312 30.8085 C 22.2312 30.6685 22.1742 30.5245 22.5892 30.3015 C 22.7222 30.2335 22.8312 30.1805 22.9552 30.1215 C 22.6872 29.9865 22.3872 29.8285 22.2932 29.6625 M 20.3192 30.3055 C 20.3192 30.4835 20.6192 30.4575 21.2102 30.4395 C 21.7282 30.4395 21.6962 30.3255 21.7172 30.7525 C 21.7182 30.9125 21.7342 30.9505 21.3842 30.9635 C 20.1892 31.0235 20.2942 30.9935 20.2972 31.2745 C 20.3072 31.5125 20.5002 31.4595 21.2232 31.4225 C 21.6922 31.4015 21.7252 31.3305 21.7612 31.6485 C 21.7832 31.8445 21.7502 31.9805 21.7502 31.9805 C 21.4082 31.9805 20.0962 32.1135 19.7722 32.0765 C 19.4242 32.0305 19.4262 32.0605 19.4462 31.3605 C 19.4912 30.7325 19.5162 30.1355 19.6542 29.6075 C 19.8052 29.2875 19.8252 29.3525 21.1542 29.2955 C 21.8582 29.3015 21.7832 29.2505 21.8372 29.7215 C 21.8512 29.8945 21.8842 29.9285 20.7422 29.9945 C 20.2232 29.9835 20.3072 29.9415 20.3192 30.3055 M 27.8292 35.4095 C 27.7832 36.5685 27.7562 36.4595 26.9532 36.4595 C 26.2522 36.4595 24.5072 36.4615 24.3902 36.4715 C 24.3902 36.6355 24.3462 36.9925 24.3672 37.3195 C 24.3932 37.7735 24.6512 37.8905 22.8002 38.0785 C 22.3632 38.1175 19.5672 38.0085 19.3842 37.6785 C 19.1802 37.3385 18.8382 36.7895 19.1012 36.3205 C 19.4952 36.6335 19.8712 36.8755 20.7202 37.1805 C 21.3992 37.2995 22.5012 37.4005 23.0682 37.2335 C 23.4682 37.0685 23.4552 36.9515 23.4332 36.5215 C 22.1282 36.4415 21.4342 36.4055 21.0012 36.3815 C 20.2852 36.2955 20.3232 36.3035 20.3122 35.9455 C 20.3482 35.6585 20.4192 35.5885 20.8842 35.6155 C 21.1442 35.6535 21.6942 35.6935 22.4442 35.6935 L 23.4332 35.6935 L 23.4332 35.1185 C 22.4272 35.1575 22.0562 35.1375 22.0562 35.1375 C 20.8722 35.0865 21.0632 34.9185 21.0032 34.3795 C 21.1042 33.4145 21.1022 33.5455 21.9752 33.4855 C 22.7242 33.4715 24.8452 33.4345 25.3942 33.4515 C 26.2522 33.5315 26.1392 33.5925 26.1242 34.3575 C 26.0372 34.7915 26.1982 34.9415 25.3502 35.0675 C 25.1972 35.0685 24.3842 35.1295 24.3842 35.1295 L 24.3842 35.6935 L 26.2952 35.6935 C 26.9742 35.6835 26.9742 35.1185 26.9742 35.1185 C 26.9742 34.5555 27.0532 33.7025 27.0532 33.7025 C 27.0432 33.1005 26.4582 33.1005 26.4582 33.1005 C 25.8742 33.1005 22.6772 33.0515 21.3682 33.0725 C 20.3532 33.0805 20.3292 33.2445 20.2442 33.5965 C 20.1502 33.9875 20.0762 35.6035 19.7752 35.5375 C 19.0122 35.3465 19.1842 35.2655 19.1942 34.8165 C 19.2262 34.2135 19.3292 33.5925 19.4382 32.9985 C 19.6022 32.5755 19.6712 32.3465 22.1712 32.3625 C 23.3232 32.3625 26.7012 32.3585 26.7012 32.3585 C 27.4632 32.4065 27.7252 32.3995 27.8292 33.1395 C 27.9152 34.2215 27.8702 34.5665 27.8292 35.4095 M 28.6292 24.5605 C 28.6292 23.6725 28.7192 23.5225 28.8932 23.2585 C 29.0842 23.1625 29.3362 23.2955 29.4212 23.4045 C 29.5442 23.7155 29.3342 25.2785 29.3082 25.9755 C 29.2622 26.6665 29.4852 27.3655 29.2102 27.4825 C 28.9172 27.5785 28.7162 27.4905 28.6932 27.2915 C 28.5922 26.4555 28.6292 24.5605 28.6292 24.5605 M 28.9262 21.6015 C 29.0352 20.9195 28.9832 20.1435 29.0432 19.9355 C 29.1082 19.8655 29.2852 19.8165 29.4972 19.8635 C 29.7492 20.0435 29.8292 22.2445 29.2702 22.6845 C 29.1042 22.6865 28.9032 22.7065 28.8382 22.5875 C 28.7562 22.4365 28.8442 22.0935 28.9262 21.6015 M 29.8982 23.0705 C 29.9342 22.6085 30.0702 21.0155 30.0152 20.6085 C 30.0272 20.3445 29.9872 19.9705 30.0732 19.6825 C 30.1122 19.5475 30.2472 19.5285 30.4762 19.5075 C 30.8472 19.4375 30.7672 20.7335 30.7672 20.7335 C 30.7322 21.8575 30.4322 24.0645 30.4322 24.6435 C 30.3202 25.5925 30.7702 28.1195 30.5202 28.3575 C 30.4392 28.3975 30.1242 28.4465 30.0442 28.2895 C 29.8062 27.6055 29.7912 26.5575 29.7492 25.6625 C 29.6872 24.6515 29.8612 23.5345 29.8982 23.0705 M 31.2102 23.6555 C 31.5582 23.7975 31.5772 24.8855 31.5772 24.8855 C 31.5852 25.0295 31.6102 25.9785 31.6102 26.3035 C 31.6192 26.6195 31.6352 26.8545 31.5842 26.9895 C 31.4732 27.0765 31.3472 27.0995 31.1502 27.0595 C 30.9922 26.9655 30.9102 26.1235 30.9102 25.8445 C 30.9102 25.5645 30.9022 24.9145 30.8192 24.2845 C 30.7382 23.6545 30.8062 23.7285 31.2102 23.6555 M 31.0362 20.1495 C 31.0502 19.8615 31.0332 19.7915 31.2712 19.7745 C 31.6512 19.7635 31.6462 19.9015 31.6772 20.0935 C 31.6722 20.3975 31.6632 21.0125 31.6582 21.5935 C 31.6552 21.9335 31.6602 22.6535 31.3932 22.7555 C 31.0932 22.7955 30.9152 22.8255 30.9342 22.4885 C 30.9102 22.2935 31.0162 21.9905 31.0672 21.6835 C 31.1182 21.3735 31.0732 20.5165 31.0362 20.1495 M 32.0082 21.3155 C 32.1542 19.9385 32.1882 20.0795 32.9522 19.7945 C 33.8642 19.6285 34.3602 19.4845 34.8342 19.4995 C 35.3092 19.5125 36.3702 19.5405 37.3482 19.9135 C 37.7692 20.0645 37.5982 20.2045 37.6192 21.7835 C 37.5532 22.3785 37.5032 22.2815 36.8942 22.3395 C 36.3942 22.3245 36.1262 22.3695 35.4762 22.1895 C 35.2652 21.9285 35.0052 20.5095 34.5272 20.6845 C 34.3272 20.8345 34.5262 20.8555 34.1832 21.5425 C 34.1122 21.6495 33.9932 21.9865 33.8662 22.1295 C 33.3772 22.3555 32.9552 22.2895 32.4002 22.3105 C 31.8822 22.2905 32.0152 22.0405 32.0082 21.3155 M 40.2152 21.0085 C 40.2152 21.3855 40.3732 21.7255 40.6262 21.9655 L 40.6352 21.9765 L 45.1002 26.4415 L 45.1012 26.4415 C 45.3402 26.6805 45.4892 27.0125 45.4892 27.3755 L 45.4892 21.7905 C 45.4892 21.5275 45.3372 21.1635 45.1532 20.9785 L 35.7852 11.6095 C 35.5992 11.4245 35.2342 11.2735 34.9722 11.2735 L 34.2822 11.2735 L 34.2822 11.2745 C 34.1002 11.2745 33.9522 11.4205 33.9522 11.6045 L 33.9522 16.0525 C 33.9522 16.3245 33.7322 16.5455 33.4592 16.5475 L 32.9632 16.5475 L 32.9632 12.2625 C 32.9632 11.7165 32.5212 11.2745 31.9742 11.2745 L 24.7232 11.2745 C 24.1772 11.2745 23.7342 11.7165 23.7342 12.2625 L 23.7342 16.5475 L 23.2392 16.5475 C 22.9662 16.5455 22.7452 16.3245 22.7452 16.0525 L 22.7452 11.6045 C 22.7452 11.4205 22.5982 11.2745 22.4152 11.2745 L 22.4152 11.2735 L 21.7262 11.2735 C 21.4632 11.2735 21.0982 11.4245 20.9132 11.6095 L 11.5462 20.9785 C 11.3612 21.1635 11.2092 21.5275 11.2092 21.7905 L 11.2092 27.3755 C 11.2092 27.0125 11.3582 26.6805 11.5972 26.4415 L 16.0622 21.9765 L 16.0712 21.9655 C 16.3252 21.7255 16.4832 21.3855 16.4832 21.0085 L 16.4832 21.5535 L 16.4832 21.9405 C 16.4832 22.3045 16.3342 22.6345 16.0952 22.8735 L 16.0942 22.8735 L 11.6292 27.3385 L 11.6202 27.3515 C 11.3682 27.5905 11.2092 27.9305 11.2092 28.3075 L 11.2092 33.3615 C 11.2092 32.9965 11.3582 32.6665 11.5972 32.4285 L 16.0622 27.9615 L 16.0712 27.9505 C 16.3252 27.7115 16.4832 27.3715 16.4832 26.9945 L 16.4832 27.5395 L 16.4832 27.9245 C 16.4832 28.2895 16.3342 28.6215 16.0952 28.8585 L 16.0942 28.8595 L 11.6292 33.3255 L 11.6202 33.3365 C 11.3682 33.5765 11.2092 33.9165 11.2092 34.2935 L 11.2092 35.0375 C 11.2092 35.2995 11.3612 35.6645 11.5462 35.8505 L 12.8542 37.1565 L 16.0622 33.9475 L 16.0712 33.9385 C 16.3252 33.6965 16.4832 33.3575 16.4832 32.9825 L 16.4832 33.5255 L 16.4832 33.9125 C 16.4832 34.2755 16.3342 34.6075 16.0952 34.8465 L 16.0942 34.8465 L 13.3192 37.6215 L 20.8342 45.1375 L 22.8682 41.4825 C 23.0422 41.1575 23.3832 40.9395 23.7772 40.9395 L 24.0872 40.9395 L 24.5622 40.9395 C 24.1612 40.9395 23.8152 41.1665 23.6442 41.4985 L 23.6432 41.4985 L 21.4192 45.5005 C 21.5262 45.5325 21.6322 45.5535 21.7262 45.5535 L 25.5822 45.5535 L 26.3192 41.4855 C 26.3732 41.1745 26.6462 40.9395 26.9732 40.9395 L 26.9832 40.9395 L 27.0922 40.9395 L 27.6482 40.9395 C 27.3192 40.9395 27.0452 41.1785 26.9922 41.4915 L 26.2562 45.5535 L 30.4412 45.5535 L 29.7052 41.4915 C 29.6532 41.1785 29.3792 40.9395 29.0502 40.9395 L 29.6052 40.9395 L 29.7142 40.9395 L 29.7242 40.9395 C 30.0522 40.9395 30.3242 41.1745 30.3792 41.4855 L 31.1162 45.5535 L 34.9722 45.5535 C 35.0662 45.5535 35.1722 45.5325 35.2792 45.5005 L 33.0542 41.4985 C 32.8832 41.1665 32.5352 40.9395 32.1362 40.9395 L 32.6112 40.9395 L 32.9212 40.9395 C 33.3152 40.9395 33.6562 41.1575 33.8292 41.4825 L 35.8632 45.1375 L 43.3782 37.6215 L 40.6032 34.8465 C 40.3632 34.6075 40.2152 34.2755 40.2152 33.9125 L 40.2152 33.5255 L 40.2152 32.9825 C 40.2152 33.3575 40.3732 33.6965 40.6262 33.9385 L 40.6352 33.9475 L 43.8442 37.1565 L 45.1532 35.8505 C 45.3372 35.6645 45.4892 35.2995 45.4892 35.0375 L 45.4892 34.2935 C 45.4892 33.9165 45.3302 33.5765 45.0762 33.3365 L 45.0682 33.3255 L 40.6032 28.8595 L 40.6032 28.8585 C 40.3632 28.6215 40.2152 28.2895 40.2152 27.9245 L 40.2152 27.5395 L 40.2152 26.9945 C 40.2152 27.3715 40.3732 27.7115 40.6262 27.9505 L 40.6352 27.9615 L 45.1002 32.4285 L 45.1012 32.4285 C 45.3402 32.6665 45.4892 32.9965 45.4892 33.3615 L 45.4892 28.3075 C 45.4892 27.9305 45.3302 27.5905 45.0762 27.3515 L 45.0682 27.3385 L 40.6032 22.8735 C 40.3632 22.6345 40.2152 22.3045 40.2152 21.9405 L 40.2152 21.5535 Z" fill="#761638"/>
      </g>
      <g id="Graphic_30">
        <path d="M 36.3579 21.4562 L 36.7589 21.4342 C 36.9679 21.3852 36.9439 21.0772 36.8249 20.6282 C 36.6929 20.3582 36.3149 20.3762 35.9499 20.3842 C 35.8029 20.3932 35.6959 20.4162 35.7429 20.6452 C 35.8899 21.5362 35.9279 21.3982 36.3579 21.4562 Z" fill="#761638"/>
      </g>
      <g id="Graphic_31">
        <path d="M 32.8745 21.5109 L 33.1625 21.4889 C 33.7455 21.4489 33.7125 21.1319 33.7825 20.6439 C 33.8165 20.4489 33.4895 20.4929 33.1715 20.5499 C 32.8695 20.6099 32.8595 20.5959 32.8015 20.8179 C 32.7455 21.0299 32.6655 21.4489 32.8745 21.5109 Z" fill="#761638"/>
      </g>
    </g>
  </g>
</svg>
